<svg width="60" height="60" viewBox="0 0 60 60" fill="none" xmlns="http://www.w3.org/2000/svg">
<path d="M50.4109 46.9406L35.9294 21.8921V7.92969H37.859C38.4113 7.92969 38.859 7.48197 38.859 6.92969V6C38.859 5.44772 38.4113 5 37.859 5H22.2809C21.7286 5 21.2809 5.44772 21.2809 6V6.92969C21.2809 7.48197 21.7286 7.92969 22.2809 7.92969H24.2106V21.8921L9.72971 46.9406C8.75773 48.6221 8.75651 50.6305 9.72758 52.3129C10.698 53.9957 12.4375 55 14.3794 55H45.7606C47.703 55 49.4422 53.9957 50.413 52.3129C51.3841 50.6305 51.3829 48.6221 50.4109 46.9406ZM19.8161 41.2305C19.8161 40.1517 20.691 39.2773 21.7692 39.2773C22.848 39.2773 23.7223 40.1517 23.7223 41.2305C23.7223 42.3093 22.848 43.1836 21.7692 43.1836C20.691 43.1836 19.8161 42.3093 19.8161 41.2305ZM23.7223 49.043C22.6441 49.043 21.7692 48.1686 21.7692 47.0898C21.7692 46.011 22.6441 45.1367 23.7223 45.1367C24.8011 45.1367 25.6755 46.011 25.6755 47.0898C25.6755 48.1686 24.8011 49.043 23.7223 49.043ZM32.5114 44.6484C30.8937 44.6484 29.5817 43.3365 29.5817 41.7188C29.5817 40.101 30.8937 38.7891 32.5114 38.7891C34.1297 38.7891 35.4411 40.101 35.4411 41.7188C35.4411 43.3365 34.1297 44.6484 32.5114 44.6484ZM22.0042 31.5625L27.1403 22.6782V7.92969H32.9997V22.6782L38.1364 31.5625H22.0042ZM41.3005 49.043C40.2223 49.043 39.3473 48.1686 39.3473 47.0898C39.3473 46.011 40.2223 45.1367 41.3005 45.1367C42.3792 45.1367 43.2536 46.011 43.2536 47.0898C43.2536 48.1686 42.3792 49.043 41.3005 49.043Z" fill="url(#paint0_linear_172_3533)"/>
<defs>
<linearGradient id="paint0_linear_172_3533" x1="38.301" y1="9.34735" x2="5.20226" y2="52.058" gradientUnits="userSpaceOnUse">
<stop stop-color="#F4DCB7"/>
<stop offset="1" stop-color="#AF7927"/>
</linearGradient>
</defs>
</svg>
