<svg width="61" height="60" viewBox="0 0 61 60" fill="none" xmlns="http://www.w3.org/2000/svg">
<path d="M21.2738 5H6.98809C6.16631 5 5.5 5.66631 5.5 6.48809V38.104L22.7619 8.20547V6.48809C22.7619 5.66631 22.0956 5 21.2738 5Z" fill="url(#paint0_linear_165_218)"/>
<path d="M41.6951 15.0174C41.593 14.6361 41.3437 14.3111 41.0018 14.1138L28.63 6.97088C27.9182 6.55965 27.008 6.80379 26.5973 7.51551L10.7891 34.8959L40.6876 17.634L41.5464 16.1465C41.7438 15.8048 41.7973 15.3985 41.6951 15.0174Z" fill="url(#paint1_linear_165_218)"/>
<path d="M53.5284 31.8704L46.3855 19.4987C45.9745 18.787 45.0646 18.543 44.3528 18.9541L16.9727 34.7619H51.4963L52.9837 33.9032C53.6953 33.4922 53.9392 32.5822 53.5284 31.8704Z" fill="url(#paint2_linear_165_218)"/>
<path d="M54.0127 37.738H14.3302C9.5711 37.738 5.69922 41.6099 5.69922 46.369C5.69922 51.1281 9.571 55 14.3302 55H54.0127C54.8345 55 55.5008 54.3337 55.5008 53.5119V39.2261C55.5008 38.4043 54.8345 37.738 54.0127 37.738ZM14.1317 47.8571C13.2976 47.8571 12.6798 47.1753 12.6437 46.369C12.6076 45.5653 13.3534 44.8809 14.1317 44.8809C14.9659 44.8809 15.5837 45.5628 15.6198 46.369C15.6559 47.1727 14.9102 47.8571 14.1317 47.8571Z" fill="url(#paint3_linear_165_218)"/>
<defs>
<linearGradient id="paint0_linear_165_218" x1="17.5025" y1="7.87829" x2="-4.56574" y2="25.4969" gradientUnits="userSpaceOnUse">
<stop stop-color="#F4DCB7"/>
<stop offset="1" stop-color="#AF7927"/>
</linearGradient>
<linearGradient id="paint1_linear_165_218" x1="32.3138" y1="9.21648" x2="15.4385" y2="37.6554" gradientUnits="userSpaceOnUse">
<stop stop-color="#F4DCB7"/>
<stop offset="1" stop-color="#AF7927"/>
</linearGradient>
<linearGradient id="paint2_linear_165_218" x1="42.5292" y1="20.1462" x2="36.7697" y2="40.3936" gradientUnits="userSpaceOnUse">
<stop stop-color="#F4DCB7"/>
<stop offset="1" stop-color="#AF7927"/>
</linearGradient>
<linearGradient id="paint3_linear_165_218" x1="40.3271" y1="39.2389" x2="35.2447" y2="61.6891" gradientUnits="userSpaceOnUse">
<stop stop-color="#F4DCB7"/>
<stop offset="1" stop-color="#AF7927"/>
</linearGradient>
</defs>
</svg>
