<svg width="60" height="60" viewBox="0 0 60 60" fill="none" xmlns="http://www.w3.org/2000/svg">
<g clip-path="url(#clip0_165_255)">
<path fill-rule="evenodd" clip-rule="evenodd" d="M49.5418 44.0262L46.5686 47.0026L34.3832 34.6427L34.3501 34.6079C31.9075 32.3836 29.603 31.37 28.1883 31.8978C27.5197 32.1482 27.0831 32.719 26.9947 33.4645V33.4871C26.968 33.738 26.9466 33.9884 26.9252 34.2377L26.9228 34.2657C26.6189 37.7446 26.3922 40.3314 22.9052 41.5549L21.0042 32.8588C20.8162 31.9895 21.391 31.3573 21.7502 31.0577L28.7132 25.2435C30.023 24.1505 31.8632 24.2117 33.3001 25.3955C38.5887 29.7579 43.0153 29.4363 46.4194 28.3564L49.5418 44.0262ZM43.9381 51.7458C44.4853 51.7458 44.9936 51.5358 45.3749 51.155C45.9663 50.5616 46.1266 49.6425 45.7837 48.8799L33.0678 35.9771C30.7468 33.8667 29.1994 33.5306 28.8623 33.6462C28.8623 33.6539 28.8623 33.6639 28.8568 33.6765L28.8434 33.8294C28.8257 34.0303 28.8081 34.2306 28.7905 34.4298C28.6191 36.3999 28.4534 38.2607 27.6299 39.8981C26.6739 41.7954 24.9719 43.0216 22.4242 43.6488C22.1811 43.709 21.9214 43.6682 21.7059 43.5339C21.4904 43.4 21.3411 43.1857 21.2859 42.9381L19.1749 33.2583C18.882 31.9176 19.3794 30.5907 20.5454 29.6187L23.1704 27.4281H13.7647L10.4158 44.2439L23.5848 57.4164C24.3751 58.2077 25.6626 58.2077 26.4584 57.4164C26.8398 57.035 27.0442 56.5255 27.0442 55.9806C27.0442 55.4368 26.8398 54.9273 26.4584 54.546V54.5454L22.9492 51.0373C22.5846 50.6714 22.5846 50.0774 22.9492 49.7115C23.314 49.3451 23.9054 49.3451 24.2756 49.7115L31.8189 57.2587C32.6147 58.0501 33.9023 58.0501 34.6926 57.2587C35.4829 56.4685 35.4829 55.1837 34.6981 54.3917L34.6926 54.3885L27.6466 47.3414C27.2763 46.9749 27.2763 46.3815 27.6466 46.0157C28.0114 45.6498 28.6026 45.6492 28.9729 46.0157L38.3068 55.3517C38.6881 55.7325 39.1965 55.9425 39.7436 55.9425C40.2851 55.9425 40.7991 55.7325 41.1749 55.3517C41.9708 54.5599 41.9708 53.2723 41.1749 52.4809L32.3439 43.6454C31.9737 43.2791 31.9737 42.6855 32.3439 42.3197C32.7086 41.9532 33.3001 41.9532 33.6703 42.3197L42.5068 51.155C42.8826 51.5358 43.3966 51.7458 43.9381 51.7458ZM55.068 24.4708L59.1022 44.7296C59.2072 45.2448 59.1022 45.7703 58.8093 46.2085C58.5165 46.6473 58.0688 46.9452 57.5548 47.048L52.3601 48.0825C52.233 48.1078 52.1005 48.1206 51.9733 48.1206C51.5865 48.1206 51.2106 48.0073 50.8846 47.7873C50.4425 47.4943 50.1441 47.0495 50.0446 46.5344L49.9838 46.2365L47.6628 48.5592C48.0773 49.922 47.7291 51.4539 46.7013 52.4801C45.9663 53.2155 44.9826 53.6207 43.9381 53.6207C43.8386 53.6207 43.7336 53.6168 43.6341 53.609C43.717 54.7089 43.3413 55.8378 42.5068 56.6773C41.7663 57.4123 40.7881 57.8174 39.7436 57.8174C38.7268 57.8174 37.7762 57.4372 37.0523 56.7448C36.8866 57.4196 36.5439 58.0589 36.0189 58.5845C34.4937 60.107 32.0179 60.107 30.4982 58.5851L28.8127 56.9034C28.6469 57.5947 28.2987 58.228 27.7792 58.742C27.0222 59.503 26.0219 59.8837 25.0217 59.8837C24.0214 59.8837 23.0212 59.503 22.2585 58.742L9.97366 46.4549L9.95702 46.5344C9.85202 47.0496 9.55366 47.4944 9.11702 47.7873C8.791 48.0073 8.40967 48.1206 8.02835 48.1206C7.89569 48.1206 7.76866 48.1079 7.636 48.0825L2.44682 47.048C1.93284 46.9452 1.4853 46.6473 1.19233 46.2085C0.899478 45.7703 0.794478 45.2448 0.89397 44.7292L4.93377 24.4708C5.03327 23.9558 5.33163 23.5108 5.77377 23.218C6.2103 22.9251 6.73541 22.8201 7.24928 22.9229L12.444 23.9574C13.2673 24.121 13.8642 24.7748 13.9968 25.5534H25.414L27.5085 23.8038C29.5312 22.1144 32.3385 22.1724 34.4937 23.9491C39.1799 27.8164 42.9488 27.5301 46.0546 26.505L46.0105 26.2757C45.9055 25.7606 46.0105 25.2351 46.3033 24.7969C46.5962 24.3581 47.0383 24.0602 47.5578 23.9574L52.747 22.9229C53.2665 22.8201 53.7914 22.9251 54.228 23.218C54.6645 23.511 54.963 23.9558 55.068 24.4708ZM22.4132 13.7478C20.9875 12.0866 18.9152 11.1145 16.7157 11.1145C12.9413 11.1151 9.74163 13.9689 9.27182 17.6787H20.0149C20.5177 16.1915 21.3467 14.8542 22.4132 13.7478ZM30.0009 12.3712C34.4108 12.3712 38.141 15.7428 38.6163 20.0992H21.3854C21.8607 15.7428 25.5909 12.3712 30.0009 12.3712ZM43.286 11.1145H43.2805C41.0866 11.1145 39.0142 12.0866 37.5884 13.7478C38.6549 14.8542 39.4839 16.1915 39.9868 17.6787H50.7298C50.2601 13.9689 47.0605 11.1151 43.286 11.1145ZM19.5672 19.5537H8.88499C8.46499 19.5537 8.05612 19.3762 7.76866 19.0664C7.48131 18.7563 7.33213 18.3363 7.3653 17.913C7.64151 14.2551 10.0345 11.1936 13.2783 9.90046C12.0239 8.89194 11.217 7.34624 11.217 5.61538C11.217 2.58303 13.6873 0.116705 16.7157 0.116705C19.7497 0.116705 22.2144 2.58315 22.2144 5.61538C22.2144 7.34565 21.4131 8.89077 20.1587 9.89987C21.5623 10.4563 22.8223 11.3494 23.8225 12.516C24.5962 11.9556 25.4417 11.4969 26.348 11.1593C24.8449 10.0413 23.8723 8.25409 23.8723 6.24362C23.8723 2.86546 26.6245 0.116119 30.001 0.116119C33.3776 0.116119 36.1297 2.86534 36.1297 6.24362C36.1297 8.25409 35.157 10.0413 33.6539 11.1593C34.5602 11.4969 35.4057 11.9556 36.1739 12.516C37.1796 11.3494 38.4396 10.4564 39.8432 9.89987C38.5887 8.89077 37.7874 7.34565 37.7874 5.61538C37.7874 2.58303 40.2522 0.116705 43.2861 0.116705C46.3144 0.116705 48.7792 2.58315 48.7792 5.61538C48.7792 7.34624 47.9779 8.89194 46.7234 9.90046C49.9674 11.1935 52.3603 14.2551 52.6366 17.9135C52.6641 18.3368 52.5205 18.7568 52.2331 19.0663C51.9458 19.3762 51.5368 19.5537 51.1113 19.5537H40.4346C40.4677 19.7824 40.4954 20.0128 40.5119 20.2466C40.5451 20.6914 40.3904 21.1342 40.0864 21.4602C39.7879 21.7868 39.3569 21.9736 38.9092 21.9736H21.0925C20.6449 21.9736 20.2139 21.7868 19.9154 21.4608C19.6114 21.1346 19.4567 20.692 19.4899 20.2466C19.5064 20.0129 19.534 19.7824 19.5672 19.5537Z" fill="url(#paint0_linear_165_255)"/>
</g>
<defs>
<linearGradient id="paint0_linear_165_255" x1="41.3836" y1="5.31273" x2="3.60206" y2="61.7233" gradientUnits="userSpaceOnUse">
<stop stop-color="#F4DCB7"/>
<stop offset="1" stop-color="#AF7927"/>
</linearGradient>
<clipPath id="clip0_165_255">
<rect width="60" height="60" fill="white"/>
</clipPath>
</defs>
</svg>
