<svg width="60" height="60" viewBox="0 0 60 60" fill="none" xmlns="http://www.w3.org/2000/svg">
<path fill-rule="evenodd" clip-rule="evenodd" d="M55.7496 5.41457C55.5626 5.22551 55.2265 4.99997 54.6862 4.99997C53.9943 4.99997 51.8894 4.99997 38.968 16.0419C34.7969 19.606 30.1843 23.7556 25.9082 27.7694L33.6501 35.6051C37.9296 30.9351 42.3486 25.8831 46.0853 21.3607C49.4057 17.3423 51.9573 14.029 53.6695 11.5131C56.1102 7.92641 56.6545 6.33047 55.7496 5.41457ZM19.9038 33.5391L27.9484 41.6812C29.2135 40.3687 30.5308 38.975 31.8737 37.5301L24.006 29.5671C22.574 30.93 21.1965 32.2636 19.9038 33.5391ZM8.09558 45.693C8.93835 41.5332 9.98448 36.3698 18.0475 35.3906L18.0511 35.3867L26.1227 43.5561L26.099 43.5803C23.9972 52.9901 17.5017 55 12.3972 55H12.3956C7.74647 55 3.7715 53.3457 3.60467 53.276C3.18614 53.1022 2.94131 52.6524 3.01212 52.2049C3.08294 51.7574 3.45077 51.4109 3.9025 51.3744C6.85838 51.1361 7.37291 49.2607 8.09549 45.6934L8.09558 45.693Z" fill="url(#paint0_linear_165_213)"/>
<defs>
<linearGradient id="paint0_linear_165_213" x1="19.0776" y1="37.092" x2="7.71035" y2="57.61" gradientUnits="userSpaceOnUse">
<stop stop-color="#F4DCB7"/>
<stop offset="1" stop-color="#AF7927"/>
</linearGradient>
</defs>
</svg>
