<svg width="24" height="24" viewBox="0 0 24 24" fill="none" xmlns="http://www.w3.org/2000/svg">
<g id="instagram">
<path id="instagram_2" d="M21.9205 8.14944C21.859 6.84646 21.6026 5.17414 20.2081 3.77883C18.8136 2.38351 17.1423 2.12702 15.84 2.06546C14.2917 1.98338 9.68779 1.97312 8.14972 2.06546C6.84749 2.12702 5.17612 2.37325 3.78161 3.77883C2.38709 5.17414 2.13074 6.84646 2.06921 8.14944C1.97693 9.69865 1.97693 14.3052 2.06921 15.8442C2.13074 17.1472 2.37684 18.8195 3.78161 20.2251C5.18637 21.6204 6.85775 21.8769 8.14972 21.9384C8.92901 21.9795 10.4671 22 12.0051 22C13.5432 22 15.071 21.9795 15.84 21.9384C17.1423 21.8769 18.8136 21.6307 20.2184 20.2251C21.6129 18.8298 21.8693 17.1574 21.9308 15.8544C22.0231 14.3052 22.0231 9.70891 21.9308 8.1597L21.9205 8.14944ZM20.3825 15.7621C20.3004 17.3113 19.9313 18.3168 19.111 19.1273C18.301 19.9378 17.2961 20.3174 15.7478 20.3892C14.2405 20.4713 9.73905 20.4713 8.21124 20.3892C6.67318 20.3071 5.66831 19.9275 4.84801 19.117C4.03796 18.3065 3.65856 17.3011 3.58678 15.7519C3.50475 14.2745 3.50475 9.69865 3.58678 8.211C3.66881 6.66179 4.03796 5.65634 4.84801 4.84582C5.65805 4.03531 6.67318 3.65571 8.21124 3.58389C8.97002 3.54285 10.4671 3.52233 11.9744 3.52233C13.4817 3.52233 14.989 3.54285 15.7478 3.58389C17.2961 3.66597 18.301 4.0353 19.111 4.85608C19.921 5.66659 20.3004 6.67206 20.3722 8.22127C20.4542 9.7397 20.4542 14.2437 20.3722 15.7621H20.3825ZM11.9846 7.12347C9.29813 7.12347 7.11408 9.30878 7.11408 11.9968C7.11408 14.6849 9.29813 16.8702 11.9846 16.8702C14.6711 16.8702 16.8552 14.6849 16.8552 11.9968C16.8552 9.30878 14.6711 7.12347 11.9846 7.12347ZM11.9846 15.3312C10.1492 15.3312 8.65215 13.8333 8.65215 11.9968C8.65215 10.1603 10.1492 8.66242 11.9846 8.66242C13.82 8.66242 15.3171 10.1603 15.3171 11.9968C15.3171 13.8333 13.82 15.3312 11.9846 15.3312ZM18.6701 6.354C18.6701 6.91828 18.2086 7.37997 17.6447 7.37997C17.0807 7.37997 16.6193 6.91828 16.6193 6.354C16.6193 5.78972 17.0705 5.32803 17.6447 5.32803C18.2086 5.32803 18.6701 5.78972 18.6701 6.354Z" fill="#B8875C"/>
</g>
</svg>
