<svg width="60" height="60" viewBox="0 0 60 60" fill="none" xmlns="http://www.w3.org/2000/svg">
<path fill-rule="evenodd" clip-rule="evenodd" d="M50.9316 22.1806C51.4926 21.8144 52.1716 21.6746 52.8316 21.7894C53.1707 21.8602 53.4917 21.9995 53.7752 22.1986C54.0586 22.3976 54.2985 22.6524 54.4801 22.9474C54.6618 23.2423 54.7814 23.5711 54.8316 23.9139C54.8819 24.2566 54.8618 24.6059 54.7725 24.9406L51.0887 38.692C50.9113 39.3531 50.5382 39.9452 50.0185 40.3907L46.0579 43.7882C45.6849 44.1072 45.3855 44.5032 45.1803 44.949C44.975 45.3947 44.8687 45.8796 44.8687 46.3704V48.205H34.6762V40.9106C34.6763 39.7258 34.986 38.5617 35.5749 37.5336C36.1637 36.5056 37.0111 35.6493 38.0329 35.0499L43.841 31.6422C44.141 31.4697 44.4729 31.36 44.8166 31.3197C45.1603 31.2795 45.5086 31.3095 45.8404 31.408C46.1721 31.5065 46.4804 31.6714 46.7464 31.8927C47.0125 32.114 47.2307 32.3871 47.388 32.6954C47.3915 32.7018 47.3938 32.7088 47.3961 32.7159C47.3978 32.721 47.3995 32.7261 47.4016 32.7311L49.8087 23.7625C49.9693 23.1121 50.3706 22.5468 50.9316 22.1806ZM17.0176 31.6422L22.8257 35.0499C23.8475 35.6493 24.6949 36.5056 25.2837 37.5336C25.8726 38.5617 26.1824 39.7258 26.1824 40.9106V48.205H15.9899V46.3704C15.9902 45.8798 15.8843 45.395 15.6795 44.9493C15.4747 44.5036 15.1758 44.1075 14.8033 43.7883L10.8426 40.3907C10.3229 39.9452 9.94989 39.3531 9.77243 38.692L6.08614 24.9406C5.99684 24.6059 5.97671 24.2566 6.02698 23.9139C6.07724 23.5712 6.19685 23.2423 6.3785 22.9474C6.56014 22.6524 6.8 22.3977 7.08343 22.1986C7.36687 21.9995 7.68791 21.8602 8.02696 21.7894C8.68712 21.6746 9.36622 21.8146 9.92726 22.1809C10.4883 22.5473 10.8895 23.1128 11.0499 23.7633L13.457 32.7311C13.4592 32.7261 13.4608 32.721 13.4625 32.7159C13.4648 32.7089 13.4672 32.7018 13.4706 32.6954C13.6279 32.3871 13.8462 32.1141 14.1122 31.8927C14.3782 31.6714 14.6865 31.5065 15.0182 31.408C15.35 31.3095 15.6983 31.2795 16.042 31.3197C16.3857 31.36 16.7176 31.4697 17.0176 31.6422ZM32.1281 50.7532V55H47.4169V50.7532V48.205H44.8687H34.6762H32.1281V50.7532ZM13.4418 55V50.7532V48.205H15.9899H26.1824H28.7306V50.7532V55H13.4418Z" fill="url(#paint0_linear_172_4288)"/>
<path d="M40.9737 11.9498C40.9438 11.2395 40.9438 10.5614 40.9438 9.88341C40.9438 9.33453 40.5559 8.9148 40.0487 8.9148C36.3189 8.9148 33.4843 7.75247 31.1271 5.26637C30.769 4.91121 30.2319 4.91121 29.8739 5.26637C27.5167 7.75247 24.682 8.9148 20.9523 8.9148C20.445 8.9148 20.0571 9.33453 20.0571 9.88341C20.0571 10.5614 20.0571 11.2395 20.0273 11.9498C19.9079 18.73 19.7289 28.0287 30.2021 31.9354L30.5005 32L30.7989 31.9354C41.2422 28.0287 41.093 18.7623 40.9737 11.9498ZM29.7844 21.3453C29.6053 21.5067 29.3965 21.6036 29.1578 21.6036H29.1279C28.8892 21.6036 28.6505 21.4744 28.5013 21.2807L26.2808 18.6196C25.9685 18.2453 25.9987 17.6932 26.3501 17.3552C26.7386 16.9816 27.3626 17.016 27.7075 17.4302L29.2473 19.2789L33.3716 15.0365C33.7528 14.6444 34.3883 14.6635 34.7452 15.078C35.0613 15.445 35.0433 15.9931 34.7038 16.3386L29.7844 21.3453Z" fill="url(#paint1_linear_172_4288)"/>
<defs>
<linearGradient id="paint0_linear_172_4288" x1="39.9722" y1="24.6412" x2="23.0996" y2="62.6012" gradientUnits="userSpaceOnUse">
<stop stop-color="#F4DCB7"/>
<stop offset="1" stop-color="#AF7927"/>
</linearGradient>
<linearGradient id="paint1_linear_172_4288" x1="34.6016" y1="7.34757" x2="16.4222" y2="28.9962" gradientUnits="userSpaceOnUse">
<stop stop-color="#F4DCB7"/>
<stop offset="1" stop-color="#AF7927"/>
</linearGradient>
</defs>
</svg>
