<svg width="60" height="60" viewBox="0 0 60 60" fill="none" xmlns="http://www.w3.org/2000/svg">
<path d="M51.0278 17.87C50.968 16.5546 50.968 15.299 50.968 14.0433C50.968 13.0269 50.1907 12.2496 49.1743 12.2496C41.7004 12.2496 36.0203 10.0972 31.2969 5.49327C30.5794 4.83558 29.5031 4.83558 28.7856 5.49327C24.0622 10.0972 18.3821 12.2496 10.9082 12.2496C9.89178 12.2496 9.1145 13.0269 9.1145 14.0433C9.1145 15.299 9.1145 16.5546 9.05471 17.87C8.81554 30.426 8.4568 47.6457 29.4433 54.8804L30.0412 55L30.6392 54.8804C51.5659 47.6457 51.267 30.4858 51.0278 17.87ZM28.6063 35.2691C28.2475 35.568 27.829 35.7474 27.3507 35.7474H27.2909C26.8125 35.7474 26.3342 35.5082 26.0353 35.1495L21.1501 29.739C20.778 29.3269 20.8129 28.6904 21.228 28.3215L22.423 27.2592C22.8338 26.8941 23.4623 26.9289 23.8302 27.3372L27.53 31.4425L36.4841 22.9306C36.8872 22.5474 37.5255 22.5667 37.9047 22.9736L38.989 24.1373C39.3643 24.54 39.3435 25.1703 38.9425 25.5474L28.6063 35.2691Z" fill="url(#paint0_linear_172_4298)"/>
<defs>
<linearGradient id="paint0_linear_172_4298" x1="38.2593" y1="9.34735" x2="5.14879" y2="52.0123" gradientUnits="userSpaceOnUse">
<stop stop-color="#F4DCB7"/>
<stop offset="1" stop-color="#AF7927"/>
</linearGradient>
</defs>
</svg>
