<svg width="60" height="60" viewBox="0 0 60 60" fill="none" xmlns="http://www.w3.org/2000/svg">
<path d="M52.1334 7.86625C52.5584 8.29125 52.6209 8.96 52.2809 9.45625C46.6809 17.635 40.4771 25.04 32.7584 32.7587C25.0396 40.4775 17.6346 46.6812 9.45463 52.2812C8.95838 52.6212 8.28963 52.56 7.86463 52.1337C7.43963 51.7087 7.37713 51.04 7.71713 50.5437C13.3171 42.3637 19.5209 34.96 27.2396 27.2412C34.9584 19.5225 42.3634 13.3187 50.5434 7.71875C51.0396 7.37875 51.7071 7.44 52.1334 7.86625ZM54.3246 17.6987C47.1371 22.3 40.7146 27.5162 34.1146 34.1162C27.5146 40.7162 22.2984 47.1375 17.6971 54.3262C17.3809 54.8212 17.4509 55.4687 17.8659 55.8837C18.2809 56.2987 18.9296 56.3687 19.4234 56.0525C26.6121 51.45 33.0334 46.2325 39.6321 39.6337C46.2309 33.035 51.4484 26.6137 56.0509 19.425C56.3671 18.93 56.2971 18.2825 55.8821 17.8675C55.4671 17.4512 54.8196 17.3812 54.3246 17.6987ZM5.67338 42.3025C12.8609 37.7012 19.2834 32.485 25.8834 25.885C32.4834 19.285 37.6996 12.8625 42.3009 5.675C42.6171 5.18 42.5471 4.5325 42.1321 4.1175C41.7171 3.7025 41.0684 3.6325 40.5746 3.94875C33.3859 8.55 26.9646 13.7675 20.3646 20.3662C13.7646 26.965 8.54838 33.3875 3.94713 40.5762C3.63088 41.0712 3.70088 41.7187 4.11588 42.1337C4.53088 42.5487 5.17838 42.6187 5.67338 42.3025Z" fill="url(#paint0_linear_172_3538)"/>
<defs>
<linearGradient id="paint0_linear_172_3538" x1="40.2527" y1="8.31616" x2="7.39136" y2="58.6291" gradientUnits="userSpaceOnUse">
<stop stop-color="#F4DCB7"/>
<stop offset="1" stop-color="#AF7927"/>
</linearGradient>
</defs>
</svg>
