<svg width="61" height="60" viewBox="0 0 61 60" fill="none" xmlns="http://www.w3.org/2000/svg">
<path d="M12.1831 10.7137L16.0138 9.89061L16.8369 6.05999C16.9606 5.48061 17.7875 5.48061 17.9113 6.05999L18.7344 9.89061L22.565 10.7137C23.1444 10.8375 23.1444 11.6644 22.565 11.7881L18.7344 12.6094L17.9113 16.4419C17.7875 17.0212 16.9606 17.0212 16.8369 16.4419L16.0156 12.6094L12.1831 11.7862C11.6056 11.6625 11.6056 10.8375 12.1831 10.7137Z" fill="url(#paint0_linear_165_208)"/>
<path d="M57.2188 52.5V54.375H54.4062V52.5C54.4062 51.5906 53.93 51.1256 53.0188 50.3119C52.0231 49.4231 50.6562 48.2081 50.6562 45.9375C50.6562 44.0156 51.8694 42.675 52.8444 41.5969C54.4006 39.8775 55.2594 38.9288 52.6625 35.9475C52.6587 35.9438 52.6531 35.9363 52.6475 35.9306L54.8056 34.1288C59.0056 38.9756 56.555 41.6869 54.9294 43.4831C54.1456 44.3494 53.4688 45.0975 53.4688 45.9375C53.4688 46.9031 53.9562 47.3813 54.89 48.2119C55.8725 49.0875 57.2188 50.2856 57.2188 52.5Z" fill="url(#paint1_linear_165_208)"/>
<path d="M41.8119 31.5806C40.805 31.7775 39.8638 31.875 38.9375 31.875H9.82625L13.3269 23.9944C13.4769 23.6569 13.8144 23.4375 14.1838 23.4375H25.4694C25.0325 22.545 24.6837 21.6056 24.4306 20.625H14.1856C12.7044 20.625 11.36 21.4987 10.7581 22.8525L9.24875 26.25H3.3125C2.795 26.25 2.375 26.67 2.375 27.1875V28.4625C2.375 29.3569 3.005 30.1256 3.8825 30.3019L7.15813 30.9563L4.25 37.5V52.5C4.25 53.535 5.09 54.375 6.125 54.375H11.75C12.785 54.375 13.625 53.535 13.625 52.5V46.875H36.125V52.5C36.125 53.535 36.965 54.375 38 54.375H43.625C44.66 54.375 45.5 53.535 45.5 52.5V37.5L42.785 31.3894L41.8119 31.5806ZM11.75 42.1875C10.1975 42.1875 8.9375 40.9275 8.9375 39.375C8.9375 37.8225 10.1975 36.5625 11.75 36.5625C13.3025 36.5625 14.5625 37.8225 14.5625 39.375C14.5625 40.9275 13.3025 42.1875 11.75 42.1875ZM28.625 41.25H21.125C20.0881 41.25 19.25 40.4119 19.25 39.375C19.25 38.3381 20.0881 37.5 21.125 37.5H28.625C29.6619 37.5 30.5 38.3381 30.5 39.375C30.5 40.4119 29.6619 41.25 28.625 41.25ZM38 42.1875C36.4475 42.1875 35.1875 40.9275 35.1875 39.375C35.1875 37.8225 36.4475 36.5625 38 36.5625C39.5525 36.5625 40.8125 37.8225 40.8125 39.375C40.8125 40.9275 39.5525 42.1875 38 42.1875Z" fill="url(#paint2_linear_165_208)"/>
<path d="M26.75 16.875C26.75 10.1512 32.2137 4.6875 38.9375 4.6875C45.6612 4.6875 51.125 10.1512 51.125 16.875C51.125 18.645 50.75 20.3138 50.0731 21.8231L43.1694 13.545C42.0969 12.2681 40.5238 11.5387 38.8569 11.5387C37.55 11.5387 36.275 12 35.2662 12.8344C34.1075 13.7944 33.395 15.1481 33.26 16.65C33.125 18.1519 33.5825 19.6144 34.5444 20.7581L41.27 28.8225C40.5144 28.9688 39.74 29.0625 38.9375 29.0625C32.2137 29.0625 26.75 23.6194 26.75 16.875Z" fill="url(#paint3_linear_165_208)"/>
<path d="M54.1062 31.05L49.7938 34.65L36.7062 18.9562C35.7125 17.775 35.8625 15.9937 37.0625 15C38.2625 14.0062 40.025 14.175 41.0187 15.3562L54.1062 31.05Z" fill="url(#paint4_linear_165_208)"/>
<defs>
<linearGradient id="paint0_linear_165_208" x1="19.572" y1="6.60369" x2="12.5291" y2="17.3855" gradientUnits="userSpaceOnUse">
<stop stop-color="#F4DCB7"/>
<stop offset="1" stop-color="#AF7927"/>
</linearGradient>
<linearGradient id="paint1_linear_165_208" x1="55.2193" y1="35.8891" x2="44.1967" y2="41.3593" gradientUnits="userSpaceOnUse">
<stop stop-color="#F4DCB7"/>
<stop offset="1" stop-color="#AF7927"/>
</linearGradient>
<linearGradient id="paint2_linear_165_208" x1="32.3605" y1="23.5595" x2="13.6601" y2="60.1442" gradientUnits="userSpaceOnUse">
<stop stop-color="#F4DCB7"/>
<stop offset="1" stop-color="#AF7927"/>
</linearGradient>
<linearGradient id="paint3_linear_165_208" x1="43.6983" y1="6.80683" x2="28.4407" y2="30.1673" gradientUnits="userSpaceOnUse">
<stop stop-color="#F4DCB7"/>
<stop offset="1" stop-color="#AF7927"/>
</linearGradient>
<linearGradient id="paint4_linear_165_208" x1="48.605" y1="16.1156" x2="35.3647" y2="34.1466" gradientUnits="userSpaceOnUse">
<stop stop-color="#F4DCB7"/>
<stop offset="1" stop-color="#AF7927"/>
</linearGradient>
</defs>
</svg>
