<svg width="60" height="60" viewBox="0 0 60 60" fill="none" xmlns="http://www.w3.org/2000/svg">
<g clip-path="url(#clip0_165_250)">
<path d="M17.6936 10.8367H31.7782C31.7925 10.8361 31.806 10.83 31.8158 10.8197C31.8205 10.8146 31.8241 10.8087 31.8265 10.8022C31.8288 10.7958 31.8299 10.7889 31.8295 10.7821V5.55328C31.827 5.01691 31.6128 4.50323 31.2335 4.12397C30.8542 3.74471 30.3406 3.53054 29.8042 3.52804H28.2639C28.0401 3.52804 27.8255 3.43915 27.6672 3.28091C27.509 3.12268 27.4201 2.90807 27.4201 2.68429C27.4201 1.97234 27.1373 1.28955 26.6339 0.786125C26.1304 0.282699 25.4477 -0.00012207 24.7357 -0.00012207C24.0238 -0.00012207 23.341 0.282699 22.8375 0.786125C22.3341 1.28955 22.0513 1.97234 22.0513 2.68429C22.0513 2.90807 21.9624 3.12268 21.8042 3.28091C21.6459 3.43915 21.4313 3.52804 21.2075 3.52804H19.6676C19.1312 3.53057 18.6176 3.74475 18.2383 4.12401C17.8591 4.50327 17.6449 5.01693 17.6423 5.55328V10.7821C17.642 10.7889 17.643 10.7958 17.6454 10.8023C17.6477 10.8087 17.6514 10.8146 17.6561 10.8197C17.6659 10.83 17.6793 10.8361 17.6936 10.8367ZM24.7222 1.61542H24.7495C24.9733 1.61542 25.1879 1.70432 25.3462 1.86255C25.5044 2.02079 25.5933 2.2354 25.5933 2.45917C25.5933 2.68295 25.5044 2.89756 25.3462 3.0558C25.1879 3.21403 24.9733 3.30292 24.7495 3.30292H24.7222C24.4985 3.30292 24.2838 3.21403 24.1256 3.0558C23.9674 2.89756 23.8785 2.68295 23.8785 2.45917C23.8785 2.2354 23.9674 2.02079 24.1256 1.86255C24.2838 1.70432 24.4985 1.61542 24.7222 1.61542ZM19.7257 7.86878H29.7462C29.97 7.86878 30.1846 7.95768 30.3428 8.11591C30.501 8.27415 30.5899 8.48876 30.5899 8.71253C30.5899 8.93631 30.501 9.15092 30.3428 9.30916C30.1846 9.46739 29.97 9.55628 29.7462 9.55628H19.7257C19.5019 9.55628 19.2873 9.46739 19.1291 9.30916C18.9709 9.15092 18.882 8.93631 18.882 8.71253C18.882 8.48876 18.9709 8.27415 19.1291 8.11591C19.2873 7.95768 19.5019 7.86878 19.7257 7.86878ZM38.4722 52.3297L36.6655 59.068C36.5931 59.3438 36.4278 59.5862 36.1976 59.7545C36.0455 59.8657 35.8705 59.9415 35.6854 59.9764C35.4998 60.0135 35.3082 60.0077 35.1252 59.9593C34.8501 59.8835 34.6084 59.7176 34.4387 59.4881L32.2325 56.4929L28.8206 57.9819C28.561 58.0989 28.2688 58.1219 27.9941 58.0468C27.8128 57.9979 27.6447 57.9093 27.5019 57.7873C27.3221 57.6327 27.1895 57.4305 27.1194 57.2039C27.0494 56.9774 27.0446 56.7356 27.1058 56.5065L29.599 47.1998C30.0192 47.4903 30.4927 47.6946 30.9923 47.801C31.134 47.827 31.2645 47.8955 31.3664 47.9974C31.4682 48.0992 31.5367 48.2297 31.5627 48.3714C31.6751 48.9 31.8974 49.399 32.2151 49.8362C32.6936 50.4938 33.368 50.9831 34.1416 51.234C34.9152 51.4849 35.7483 51.4846 36.5217 51.2331C36.6559 51.1866 36.8009 51.1807 36.9384 51.216C37.0762 51.2551 37.1996 51.3335 37.2936 51.4414C37.6258 51.8104 38.0261 52.1118 38.4725 52.3291L38.4722 52.3297ZM53.1511 57.3336C53.0739 57.5076 52.9597 57.6626 52.8164 57.7878C52.6725 57.9099 52.5034 57.9985 52.3212 58.0474C52.0465 58.1225 51.7543 58.0995 51.4948 57.9825L48.0863 56.4935L45.8766 59.4887C45.7083 59.7196 45.466 59.8858 45.1901 59.9599C45.0077 60.0064 44.8173 60.012 44.6325 59.9764C44.4477 59.9407 44.273 59.8648 44.121 59.7539C43.8898 59.5858 43.7234 59.3435 43.6497 59.0674L41.8464 52.3256C42.2916 52.1097 42.6907 51.8093 43.0213 51.4411C43.116 51.3338 43.2391 51.2556 43.3765 51.2156C43.5152 51.1802 43.6612 51.1862 43.7965 51.2327C44.3119 51.399 44.8563 51.456 45.3949 51.4001C45.9034 51.3466 46.396 51.1912 46.843 50.943L46.8976 50.9157L46.9318 50.8923C47.4685 50.5808 47.9214 50.1436 48.2515 49.6183C48.5817 49.0929 48.7793 48.4952 48.8272 47.8766C49.2734 47.8387 49.7099 47.7256 50.1183 47.5419C50.3274 47.4463 50.5274 47.332 50.7159 47.2003L53.212 56.507C53.2856 56.7811 53.2642 57.0721 53.1511 57.3325V57.3336ZM42.9394 49.5875C43.3923 49.4664 43.8708 49.4807 44.3157 49.6286C44.5972 49.7211 44.8948 49.7546 45.1898 49.7269C45.4848 49.6993 45.7709 49.6112 46.0303 49.468C46.0439 49.4578 46.0576 49.4509 46.0678 49.4446C46.4584 49.2209 46.7695 48.8808 46.9574 48.4718C47.1454 48.0628 47.2009 47.6053 47.1163 47.1632C47.0929 47.0518 47.0918 46.9369 47.1129 46.8251C47.1343 46.7165 47.1769 46.6131 47.2383 46.521C47.2997 46.4289 47.3786 46.3498 47.4706 46.2883C47.5627 46.2267 47.6659 46.1839 47.7745 46.1623C47.883 46.1408 47.9948 46.1408 48.1034 46.1625C48.5467 46.2473 49.0053 46.1927 49.4163 46.0062C49.8273 45.8197 50.1704 45.5103 50.3984 45.1208C50.5483 44.857 50.6425 44.5653 50.675 44.2636C50.7081 43.9599 50.6767 43.6527 50.5828 43.3619C50.4325 42.9176 50.4172 42.4387 50.5388 41.9857C50.6604 41.5327 50.9134 41.1258 51.2659 40.8164C51.6041 40.5086 51.8371 40.1024 51.9321 39.6551C52.0271 39.2078 51.9792 38.742 51.7952 38.3234C51.6722 38.0452 51.4919 37.7961 51.2659 37.5925C50.9136 37.2832 50.6607 36.8765 50.5391 36.4237C50.4175 35.9709 50.4328 35.4922 50.5828 35.0481C50.6768 34.7574 50.7083 34.4501 50.675 34.1464C50.6464 33.8597 50.5592 33.5819 50.4189 33.3301C50.4121 33.3199 50.4053 33.3067 50.3984 33.296C50.2466 33.0336 50.0419 32.8057 49.7973 32.6266C49.5512 32.4463 49.2694 32.3205 48.9708 32.2577C48.5122 32.1617 48.0912 31.9352 47.7584 31.6055C47.4267 31.2727 47.1999 30.85 47.1061 30.3896C47.0411 30.0928 46.9155 29.8126 46.7372 29.5665C46.5591 29.3223 46.3319 29.118 46.0702 28.9668C45.8084 28.8157 45.5179 28.7209 45.2174 28.6888C44.9137 28.6556 44.6064 28.687 44.3157 28.781C43.8714 28.9294 43.3932 28.9438 42.9408 28.8223C42.4883 28.7008 42.0816 28.4489 41.7714 28.0979C41.5677 27.872 41.3187 27.6916 41.0405 27.5686C40.7634 27.4447 40.4629 27.3818 40.1593 27.3841C39.8554 27.3821 39.5545 27.4447 39.2766 27.5678C38.9987 27.6908 38.7501 27.8715 38.5473 28.0979C38.2367 28.4484 37.83 28.7 37.3777 28.8214C36.9254 28.9429 36.4473 28.9288 36.0029 28.781C35.7122 28.6873 35.405 28.6559 35.1013 28.6888C34.8146 28.7175 34.5368 28.8047 34.2851 28.945C34.2729 28.9525 34.2604 28.9593 34.2475 28.9655C33.9855 29.1179 33.7582 29.3233 33.58 29.5685C33.4019 29.8137 33.2768 30.0934 33.2127 30.3896C33.1196 30.8503 32.8926 31.2732 32.5603 31.6054C32.228 31.9377 31.8051 32.1646 31.3445 32.2577C30.898 32.3535 30.493 32.5875 30.187 32.9266C29.8811 33.2656 29.6898 33.6925 29.6402 34.1464C29.6099 34.4504 29.6425 34.7573 29.7359 35.0481C29.8838 35.4925 29.8979 35.9705 29.7765 36.4228C29.6551 36.8752 29.4035 37.2819 29.0529 37.5925C28.8263 37.7951 28.6454 38.0436 28.5223 38.3216C28.3993 38.5995 28.3368 38.9005 28.3391 39.2045C28.3368 39.4952 28.3937 39.7834 28.5064 40.0514L28.52 40.0856C28.6447 40.3638 28.8262 40.6127 29.0529 40.8164C29.4034 41.127 29.655 41.5338 29.7764 41.9861C29.8978 42.4385 29.8837 42.9165 29.7359 43.3609C29.6435 43.6429 29.61 43.941 29.6376 44.2365C29.6653 44.532 29.7533 44.8187 29.8964 45.0787C29.9062 45.0899 29.9141 45.1026 29.9198 45.1164C30.0723 45.3783 30.2777 45.6056 30.5229 45.7838C30.7681 45.962 31.0478 46.0871 31.344 46.1511C31.8046 46.2443 32.2276 46.4712 32.5599 46.8035C32.8922 47.1358 33.1191 47.5587 33.2122 48.0193C33.2765 48.3151 33.4013 48.5943 33.5788 48.8394C33.7562 49.0845 33.9826 49.2902 34.2435 49.4435C34.5071 49.5965 34.8001 49.6921 35.1032 49.7239C35.4063 49.7556 35.7127 49.723 36.0023 49.628C36.4467 49.4801 36.9248 49.4659 37.3771 49.5873C37.8294 49.7088 38.2361 49.9604 38.5467 50.3109C38.7482 50.539 38.9965 50.7208 39.2747 50.844C39.553 50.9672 39.8545 51.0288 40.1588 51.0247C40.4485 51.0271 40.7356 50.9701 41.0025 50.8574L41.0366 50.8438C41.3163 50.7201 41.5666 50.5385 41.7709 50.3109C42.0818 49.9612 42.4878 49.7095 42.9394 49.5866V49.5875ZM40.1593 46.1312C38.557 46.1312 37.0043 45.5755 35.7658 44.559C34.5272 43.5425 33.6794 42.128 33.3668 40.5564C33.0543 38.9849 33.2963 37.3537 34.0516 35.9406C34.807 34.5275 36.0289 33.42 37.5092 32.8068C38.9896 32.1937 40.6367 32.1127 42.17 32.5779C43.7033 33.043 45.0279 34.0254 45.9181 35.3576C46.8083 36.6899 47.209 38.2896 47.052 39.8842C46.895 41.4787 46.1899 42.9696 45.057 44.1026C44.4144 44.7465 43.651 45.2572 42.8105 45.6051C41.97 45.9531 41.069 46.1316 40.1593 46.1303V46.1312ZM44.5548 35.9711C44.6335 36.0491 44.696 36.1419 44.7387 36.2442C44.7813 36.3465 44.8033 36.4562 44.8033 36.5671C44.8033 36.6779 44.7813 36.7876 44.7387 36.8899C44.696 36.9922 44.6335 37.0851 44.5548 37.1631L39.2782 42.4397C39.2002 42.5184 39.1074 42.5809 39.0051 42.6235C38.9028 42.6662 38.7931 42.6881 38.6823 42.6881C38.5714 42.6881 38.4617 42.6662 38.3594 42.6235C38.2571 42.5809 38.1643 42.5184 38.0863 42.4397L35.7605 40.1173C35.6819 40.0391 35.6196 39.9461 35.577 39.8438C35.5344 39.7415 35.5124 39.6318 35.5123 39.5209C35.5122 39.4101 35.5339 39.3003 35.5763 39.1979C35.6187 39.0955 35.6808 39.0024 35.7592 38.9241C35.8376 38.8457 35.9306 38.7835 36.033 38.7412C36.1355 38.6988 36.2452 38.6771 36.3561 38.6772C36.4669 38.6773 36.5766 38.6993 36.6789 38.7419C36.7813 38.7845 36.8742 38.8468 36.9524 38.9253L38.6806 40.6523L43.3629 35.9699C43.4409 35.8912 43.5337 35.8288 43.636 35.7861C43.7382 35.7435 43.8479 35.7216 43.9587 35.7216C44.0695 35.7216 44.1792 35.7435 44.2815 35.7861C44.3837 35.8287 44.4766 35.8911 44.5546 35.9698L44.5548 35.9711ZM15.9552 9.55699H11.9357C11.9214 9.5576 11.9079 9.56374 11.8981 9.5741C11.8934 9.57914 11.8898 9.58507 11.8874 9.59153C11.8851 9.59799 11.8841 9.60485 11.8845 9.61171V45.5531C11.8838 45.56 11.8847 45.5669 11.887 45.5735C11.8894 45.58 11.8932 45.5859 11.8981 45.5907C11.9079 45.6011 11.9214 45.6072 11.9357 45.6077H28.281V45.5977C28.1155 45.2285 28.0094 44.8354 27.9668 44.433C27.9125 43.8989 27.9695 43.3593 28.1341 42.8483C28.1805 42.7115 28.1854 42.564 28.1484 42.4243C28.1113 42.2847 28.0339 42.159 27.9258 42.0632C27.5245 41.7032 27.2044 41.262 26.9866 40.7688C26.9797 40.7517 26.9729 40.738 26.9661 40.721C26.7555 40.2348 26.6485 39.7101 26.652 39.1802C26.6556 38.6504 26.7695 38.1271 26.9866 37.6438V37.6404C27.2053 37.1477 27.5253 36.7066 27.9258 36.3459C28.0336 36.2506 28.111 36.1255 28.148 35.9863C28.1851 35.8472 28.1803 35.7002 28.1341 35.5638C27.9695 35.0517 27.9125 34.511 27.9668 33.9758C28.0263 33.4402 28.196 32.9228 28.4652 32.456C28.7344 31.9892 29.0973 31.5832 29.5311 31.2635C29.9683 30.9458 30.4674 30.7235 30.996 30.6112C31.1351 30.5811 31.263 30.5125 31.3649 30.4131C31.466 30.3112 31.5349 30.1817 31.5629 30.0409C31.6761 29.5135 31.8983 29.0155 32.2153 28.5791C32.5316 28.1429 32.9367 27.7786 33.4038 27.5101C33.4214 27.4997 33.4396 27.4906 33.4584 27.4828C33.9106 27.2275 34.4105 27.0682 34.927 27.015C35.4621 26.9577 36.0031 27.0136 36.5152 27.1791C36.6518 27.2276 36.7999 27.2337 36.94 27.1965C37.0801 27.1594 37.2057 27.0807 37.3003 26.9708C37.3925 26.8717 37.4878 26.7761 37.5906 26.6839V9.61066C37.5897 9.59646 37.5836 9.58308 37.5736 9.57301C37.5635 9.56294 37.5502 9.55687 37.536 9.55593H33.5164V10.7821C33.516 11.2433 33.3329 11.6856 33.007 12.0121C32.6812 12.3385 32.2392 12.5226 31.778 12.5238H17.6936C17.2323 12.5225 16.7904 12.3385 16.4646 12.012C16.1388 11.6856 15.9556 11.2433 15.9552 10.7821V9.55699ZM23.3319 40.5019H15.9104C15.6867 40.5019 15.472 40.413 15.3138 40.2547C15.1556 40.0965 15.0667 39.8819 15.0667 39.6581C15.0667 39.4343 15.1556 39.2197 15.3138 39.0615C15.472 38.9033 15.6867 38.8144 15.9104 38.8144H23.3319C23.5557 38.8144 23.7703 38.9033 23.9285 39.0615C24.0868 39.2197 24.1757 39.4343 24.1757 39.6581C24.1757 39.8819 24.0868 40.0965 23.9285 40.2547C23.7703 40.413 23.5557 40.5019 23.3319 40.5019ZM23.3319 35.6727H15.9104C15.6867 35.6727 15.472 35.5838 15.3138 35.4256C15.1556 35.2673 15.0667 35.0527 15.0667 34.8289C15.0667 34.6052 15.1556 34.3906 15.3138 34.2323C15.472 34.0741 15.6867 33.9852 15.9104 33.9852H23.3319C23.5557 33.9852 23.7703 34.0741 23.9285 34.2323C24.0868 34.3906 24.1757 34.6052 24.1757 34.8289C24.1757 35.0527 24.0868 35.2673 23.9285 35.4256C23.7703 35.5838 23.5557 35.6727 23.3319 35.6727ZM26.6718 30.8401H15.9108C15.687 30.8401 15.4724 30.7512 15.3142 30.593C15.1559 30.4348 15.067 30.2201 15.067 29.9964C15.067 29.7726 15.1559 29.558 15.3142 29.3997C15.4724 29.2415 15.687 29.1526 15.9108 29.1526H26.6723C26.8961 29.1526 27.1107 29.2415 27.269 29.3997C27.4272 29.558 27.5161 29.7726 27.5161 29.9964C27.5161 30.2201 27.4272 30.4348 27.269 30.593C27.1107 30.7512 26.8961 30.8401 26.6723 30.8401H26.6718ZM33.5604 26.0108H15.9108C15.687 26.0108 15.4724 25.9219 15.3142 25.7637C15.1559 25.6055 15.067 25.3908 15.067 25.1671C15.067 24.9433 15.1559 24.7287 15.3142 24.5704C15.4724 24.4122 15.687 24.3233 15.9108 24.3233H33.561C33.7848 24.3233 33.9994 24.4122 34.1576 24.5704C34.3158 24.7287 34.4047 24.9433 34.4047 25.1671C34.4047 25.3908 34.3158 25.6055 34.1576 25.7637C33.9994 25.9219 33.7848 26.0108 33.561 26.0108H33.5604ZM33.5604 21.1782H15.9108C15.687 21.1782 15.4724 21.0893 15.3142 20.9311C15.1559 20.7729 15.067 20.5583 15.067 20.3345C15.067 20.1107 15.1559 19.8961 15.3142 19.7379C15.4724 19.5796 15.687 19.4907 15.9108 19.4907H33.561C33.7848 19.4907 33.9994 19.5796 34.1576 19.7379C34.3158 19.8961 34.4047 20.1107 34.4047 20.3345C34.4047 20.5583 34.3158 20.7729 34.1576 20.9311C33.9994 21.0893 33.7848 21.1782 33.561 21.1782H33.5604ZM33.5604 14.6618C33.7842 14.6618 33.9988 14.7507 34.157 14.9089C34.3153 15.0672 34.4041 15.2818 34.4041 15.5055C34.4041 15.7293 34.3153 15.9439 34.157 16.1022C33.9988 16.2604 33.7842 16.3493 33.5604 16.3493H15.9108C15.687 16.3493 15.4724 16.2604 15.3142 16.1022C15.1559 15.9439 15.067 15.7293 15.067 15.5055C15.067 15.2818 15.1559 15.0672 15.3142 14.9089C15.4724 14.7507 15.687 14.6618 15.9108 14.6618H33.5604ZM27.8262 47.295L26.904 50.7444H10.4806C9.98499 50.7433 9.49477 50.642 9.03934 50.4466C8.5839 50.2513 8.17263 49.9659 7.83024 49.6077C7.13223 48.883 6.74284 47.9157 6.74414 46.9096V8.2582C6.74278 7.25104 7.13212 6.28262 7.83024 5.55667C8.17311 5.19904 8.58447 4.91409 9.0398 4.7188C9.49513 4.52351 9.98511 4.42188 10.4806 4.41996H16.1329C16.0147 4.78631 15.9548 5.16893 15.9552 5.55386V7.86878H11.9357C11.4744 7.87002 11.0324 8.05405 10.7065 8.38054C10.3806 8.70703 10.1974 9.14937 10.1971 9.61066V45.5531C10.1965 45.7817 10.241 46.0082 10.3281 46.2196C10.4152 46.431 10.5432 46.6231 10.7047 46.7849C10.8662 46.9467 11.058 47.0751 11.2692 47.1626C11.4804 47.2501 11.7068 47.2951 11.9354 47.295H27.8262ZM33.5161 5.55281C33.5165 5.16787 33.4566 4.78525 33.3384 4.4189H38.9907C39.4862 4.42045 39.9763 4.52192 40.4317 4.71723C40.8871 4.91255 41.2984 5.19769 41.6411 5.55562C42.3396 6.28174 42.7291 7.25061 42.7276 8.2582V26.6836C42.0213 26.0511 41.1074 25.6998 40.1593 25.6965C39.8614 25.6969 39.5645 25.7323 39.2748 25.802V9.61066C39.2744 9.14941 39.0913 8.7071 38.7655 8.38062C38.4396 8.05413 37.9977 7.87009 37.5365 7.86878H33.5169L33.5161 5.55281Z" fill="url(#paint0_linear_165_250)"/>
</g>
<defs>
<linearGradient id="paint0_linear_165_250" x1="39.0839" y1="5.21675" x2="-1.33848" y2="53.1916" gradientUnits="userSpaceOnUse">
<stop stop-color="#F4DCB7"/>
<stop offset="1" stop-color="#AF7927"/>
</linearGradient>
<clipPath id="clip0_165_250">
<rect width="60" height="60" fill="white"/>
</clipPath>
</defs>
</svg>
