<svg aria-hidden="true" style="position: absolute; width: 0; height: 0; overflow: hidden;" version="1.1" xmlns="http://www.w3.org/2000/svg" xmlns:xlink="http://www.w3.org/1999/xlink">
<defs>
<symbol id="icon-tiktok" viewBox="0 0 24 24">
<path fill="#b8875c" style="fill: var(--color1, #b8875c)" d="M21.737 6.634c-0.16-0.144-0.377-0.226-0.606-0.226-0.88 0-1.909-0.246-2.514-0.605-0.937-0.543-1.588-1.404-1.783-2.378-0.046-0.215-0.069-0.441-0.057-0.656 0-0.205-0.091-0.4-0.251-0.543s-0.377-0.226-0.606-0.226h-3.531c-0.468 0-0.857 0.349-0.857 0.769v12.599c0 0.195-0.034 0.39-0.103 0.574-0.171 0.492-0.549 0.892-1.051 1.128s-1.086 0.287-1.634 0.133c-0.549-0.154-0.994-0.492-1.257-0.943s-0.32-0.974-0.137-1.466c0.171-0.492 0.549-0.892 1.051-1.128s1.086-0.287 1.634-0.133c0.263 0.072 0.549 0.031 0.766-0.113s0.354-0.379 0.354-0.615v-3.239c0-0.379-0.32-0.707-0.743-0.759-0.331-0.041-0.674-0.062-1.017-0.062-1.977 0-3.829 0.687-5.223 1.937s-2.16 2.911-2.171 4.685c0 3.66 3.314 6.633 7.383 6.633s7.394-2.973 7.394-6.622v-5.115c1.314 0.543 2.846 0.851 4.343 0.851 0.48 0 0.88-0.338 0.88-0.769v-3.147c0-0.205-0.092-0.4-0.252-0.543l-0.011-0.021zM20.274 9.524c-1.417-0.133-2.846-0.574-3.863-1.23-0.263-0.164-0.606-0.195-0.891-0.062s-0.469 0.4-0.469 0.687v6.438c0 2.809-2.548 5.085-5.68 5.085s-5.669-2.286-5.669-5.095c0-1.363 0.594-2.634 1.669-3.598s2.491-1.486 4.011-1.486c0 0 0.023 0 0.034 0v1.63c-0.606-0.021-1.257 0.123-1.829 0.39-0.914 0.431-1.589 1.148-1.897 2.030s-0.217 1.815 0.263 2.635c0.48 0.82 1.28 1.425 2.263 1.702s2.023 0.195 2.937-0.236c0.914-0.431 1.588-1.148 1.897-2.030 0.114-0.338 0.183-0.687 0.183-1.035v-11.83h1.886c0 0.062 0.023 0.113 0.034 0.174 0.286 1.394 1.223 2.624 2.537 3.393 0.674 0.4 1.634 0.687 2.594 0.8v1.62l-0.011 0.021z"></path>
</symbol>
<symbol id="icon-ins" viewBox="0 0 24 24">
<path fill="#b8875c" style="fill: var(--color1, #b8875c)" d="M22.044 8.102c-0.062-1.319-0.322-3.012-1.734-4.425s-3.104-1.672-4.422-1.735c-1.568-0.083-6.229-0.094-7.786 0-1.319 0.062-3.011 0.312-4.422 1.735-1.412 1.413-1.672 3.106-1.734 4.425-0.094 1.568-0.094 6.233 0 7.791 0.062 1.319 0.311 3.012 1.734 4.436 1.422 1.413 3.115 1.672 4.422 1.735 0.789 0.042 2.346 0.062 3.903 0.062s3.104-0.021 3.883-0.062c1.319-0.062 3.011-0.311 4.433-1.735 1.412-1.413 1.672-3.106 1.734-4.426 0.094-1.568 0.094-6.222 0-7.791l-0.010-0.010zM20.487 15.809c-0.083 1.568-0.457 2.587-1.287 3.407-0.82 0.82-1.838 1.205-3.405 1.278-1.526 0.083-6.084 0.083-7.631 0-1.557-0.083-2.575-0.467-3.405-1.288-0.82-0.82-1.205-1.839-1.277-3.407-0.083-1.496-0.083-6.129 0-7.635 0.083-1.568 0.457-2.587 1.277-3.407s1.848-1.205 3.405-1.278c0.768-0.042 2.284-0.062 3.81-0.062s3.052 0.021 3.821 0.062c1.568 0.083 2.585 0.457 3.405 1.288 0.82 0.82 1.205 1.839 1.277 3.407 0.083 1.538 0.083 6.098 0 7.635h0.010zM11.985 7.063c-2.72 0-4.931 2.213-4.931 4.934s2.211 4.934 4.931 4.934 4.931-2.212 4.931-4.934c0-2.721-2.211-4.934-4.931-4.934zM11.985 15.373c-1.858 0-3.374-1.516-3.374-3.376s1.516-3.376 3.374-3.376c1.858 0 3.374 1.516 3.374 3.376s-1.516 3.376-3.374 3.376zM18.753 6.283c0 0.571-0.467 1.039-1.038 1.039s-1.038-0.467-1.038-1.039 0.457-1.039 1.038-1.039c0.571 0 1.038 0.467 1.038 1.039z"></path>
</symbol>
</defs>
</svg>
