<svg width="24" height="24" viewBox="0 0 24 24" fill="none" xmlns="http://www.w3.org/2000/svg">
<path d="M3.12558 12.3188L7.44366 16.8419C7.59878 17.0316 7.87138 17.0537 8.0525 16.8912C8.23363 16.7287 8.25475 16.4432 8.0996 16.2535C8.08512 16.2358 8.06939 16.2193 8.0525 16.2042L4.47281 12.45L21.5682 12.45C21.8067 12.45 22 12.2475 22 11.9977C22 11.7479 21.8067 11.5454 21.5682 11.5454L4.47281 11.5454L8.0525 7.79584C8.23363 7.63337 8.25475 7.34783 8.0996 7.15811C7.94444 6.96838 7.67188 6.94627 7.49075 7.10878C7.47387 7.12394 7.4581 7.14042 7.44366 7.15811L3.12554 11.6812C2.95815 11.8575 2.95815 12.1424 3.12558 12.3188Z" fill="#D9D9D9"/>
</svg>
