<svg width="60" height="60" viewBox="0 0 60 60" fill="none" xmlns="http://www.w3.org/2000/svg">
<path d="M7.27824 38.8421C7.36288 39.0725 7.35382 39.3268 7.25301 39.5506C7.15219 39.7743 6.96766 39.9496 6.73903 40.0388C6.51041 40.128 6.25592 40.124 6.03021 40.0277C5.80451 39.9313 5.62558 39.7503 5.53184 39.5235C-2.66972 19.4391 17.378 -1.83528 37.9067 4.96125C38.14 5.03921 38.3334 5.20569 38.4451 5.42483C38.5568 5.64397 38.578 5.89823 38.5041 6.13284C38.4302 6.36746 38.2671 6.56365 38.0499 6.67916C37.8328 6.79468 37.5789 6.82027 37.343 6.75043C22.0242 1.66884 5.35955 13.8182 5.62528 30C5.62032 33.0246 6.18094 36.0235 7.27824 38.8421ZM12.2815 46.7156L15.1597 46.5844C15.406 46.57 15.6368 46.4592 15.802 46.276C15.9673 46.0927 16.0537 45.8518 16.0426 45.6052C16.0315 45.3587 15.9238 45.1265 15.7428 44.9588C15.5617 44.7912 15.3219 44.7016 15.0753 44.7094L10.2097 44.9344C9.98031 44.9548 9.76544 45.0552 9.60262 45.218C9.43981 45.3808 9.33943 45.5957 9.31903 45.825L9.09403 50.6906C9.08621 50.9373 9.17583 51.1771 9.3435 51.3581C9.51117 51.5391 9.74339 51.6469 9.9899 51.658C10.2364 51.6691 10.4774 51.5826 10.6606 51.4174C10.8439 51.2521 10.9547 51.0213 10.969 50.775L11.0909 48.1219C12.2472 49.4362 13.571 50.5929 15.0284 51.5625C15.1294 51.6333 15.2433 51.6835 15.3636 51.7103C15.484 51.737 15.6084 51.7398 15.7299 51.7185C15.8513 51.6972 15.9674 51.6521 16.0714 51.586C16.1754 51.5198 16.2654 51.4338 16.3362 51.3328C16.407 51.2319 16.4572 51.118 16.484 50.9976C16.5108 50.8772 16.5136 50.7528 16.4922 50.6313C16.4709 50.5099 16.4259 50.3938 16.3597 50.2898C16.2935 50.1858 16.2075 50.0958 16.1065 50.025C14.7468 49.0238 13.4678 47.9173 12.2815 46.7156ZM54.2137 19.8459C54.1155 19.6198 53.9321 19.4415 53.7033 19.3496C53.4745 19.2577 53.2188 19.2597 52.9914 19.355C52.7641 19.4504 52.5835 19.6315 52.4887 19.8591C52.3939 20.0867 52.3927 20.3425 52.4852 20.571C60.6508 39.9127 41.6517 60.0269 21.8766 52.9887C21.6434 52.9104 21.3887 52.9269 21.1675 53.0346C20.9464 53.1424 20.7764 53.3328 20.6944 53.5647C20.6123 53.7967 20.6248 54.0516 20.729 54.2744C20.8333 54.4973 21.0209 54.6702 21.2516 54.7559C42.5527 62.3403 63.0094 40.6662 54.2137 19.8459ZM42.9847 9.36563C44.5866 10.4654 46.078 11.7182 47.4378 13.1063L44.6534 13.2281C44.4117 13.2441 44.1854 13.3529 44.0221 13.5318C43.8587 13.7108 43.7709 13.9459 43.7769 14.1881C43.783 14.4303 43.8825 14.6608 44.0546 14.8314C44.2267 15.0019 44.458 15.0993 44.7003 15.1031C44.7284 15.1125 49.5753 14.8781 49.6128 14.8781C49.8421 14.8577 50.057 14.7573 50.2198 14.5945C50.3826 14.4317 50.483 14.2168 50.5034 13.9875L50.7284 9.12188C50.7352 8.87584 50.6452 8.63696 50.4776 8.4567C50.31 8.27645 50.0783 8.16924 49.8324 8.15817C49.5865 8.14711 49.3461 8.23307 49.163 8.39755C48.9799 8.56202 48.8687 8.79185 48.8534 9.0375L48.7315 11.6906C48.6962 11.6018 48.6418 11.5217 48.5722 11.4563C47.1859 10.0603 45.6446 8.82732 43.9784 7.78125C43.8746 7.71456 43.7586 7.66915 43.6371 7.64767C43.5157 7.62618 43.3911 7.62903 43.2708 7.65607C43.1504 7.68311 43.0366 7.73379 42.936 7.80517C42.8354 7.87655 42.7499 7.96721 42.6847 8.07188C42.5537 8.28344 42.5118 8.53822 42.568 8.7806C42.6242 9.02298 42.774 9.23329 42.9847 9.36563ZM21.6472 45.3938C18.9361 43.9245 16.6622 41.7638 15.0565 39.1313C14.9685 38.988 14.9204 38.8238 14.9171 38.6557C14.9138 38.4876 14.9554 38.3216 15.0378 38.175L16.8659 34.9781C16.9751 34.7882 17.0437 34.5776 17.0673 34.3598C17.0908 34.1419 17.0688 33.9215 17.0027 33.7126C16.9366 33.5037 16.8278 33.3108 16.6832 33.1462C16.5386 32.9816 16.3614 32.8488 16.1628 32.7563L13.0409 31.2937C12.5172 31.0781 12.4615 30.4927 12.4878 30C12.4863 27.0724 13.2179 24.191 14.6159 21.6188C14.6962 21.4723 14.8141 21.3499 14.9575 21.2642C15.1009 21.1785 15.2645 21.1326 15.4315 21.1313L19.1253 21.1219C19.3439 21.1182 19.5596 21.0699 19.7589 20.98C19.9582 20.89 20.1371 20.7603 20.2846 20.5988C20.432 20.4373 20.545 20.2474 20.6164 20.0408C20.6879 19.8341 20.7165 19.615 20.7003 19.3969L20.4003 15.9469C20.3857 15.7737 20.4191 15.5998 20.4968 15.4444C20.5745 15.2889 20.6936 15.1579 20.8409 15.0656C23.4736 13.4564 26.4843 12.5703 29.569 12.4969C29.7382 12.4881 29.9064 12.5274 30.0541 12.6104C30.2018 12.6934 30.3229 12.8166 30.4034 12.9656L32.2597 16.1437C32.3699 16.332 32.5179 16.4954 32.6944 16.6237C32.8709 16.7519 33.0721 16.8423 33.2852 16.889C33.4984 16.9356 33.7188 16.9377 33.9328 16.8949C34.1468 16.8522 34.3496 16.7656 34.5284 16.6407L37.369 14.6532C37.5133 14.5564 37.6812 14.5008 37.8547 14.4926C38.0282 14.4843 38.2006 14.5236 38.3534 14.6063C41.0645 16.0755 43.3383 18.2362 44.944 20.8688C45.0321 21.012 45.0802 21.1762 45.0835 21.3443C45.0868 21.5124 45.0451 21.6784 44.9628 21.825L43.1347 25.0219C43.0254 25.2118 42.9568 25.4224 42.9333 25.6402C42.9097 25.8581 42.9317 26.0785 42.9978 26.2874C43.0639 26.4963 43.1727 26.6892 43.3173 26.8538C43.4619 27.0184 43.6392 27.1512 43.8378 27.2438L46.9597 28.7063C47.4834 28.9216 47.539 29.5075 47.5128 30C47.5143 32.9276 46.7827 35.809 45.3847 38.3813C45.3043 38.5277 45.1864 38.6501 45.0431 38.7358C44.8997 38.8215 44.7361 38.8674 44.569 38.8688L40.8753 38.8781C40.6566 38.8818 40.441 38.9301 40.2417 39.02C40.0423 39.11 39.8634 39.2397 39.716 39.4012C39.5685 39.5627 39.4556 39.7526 39.3841 39.9593C39.3126 40.1659 39.2841 40.385 39.3003 40.6031L39.6003 44.0531C39.6149 44.2263 39.5815 44.4002 39.5037 44.5556C39.426 44.7111 39.307 44.8421 39.1597 44.9344C36.527 46.5436 33.5162 47.4297 30.4315 47.5031C30.2633 47.5066 30.0971 47.465 29.9504 47.3826C29.8037 47.3002 29.6817 47.1799 29.5972 47.0344L27.7409 43.8563C27.6307 43.668 27.4826 43.5045 27.3061 43.3763C27.1296 43.248 26.9285 43.1577 26.7153 43.111C26.5022 43.0644 26.2817 43.0623 26.0677 43.1051C25.8538 43.1478 25.651 43.2344 25.4722 43.3594L22.6315 45.3469C22.4882 45.4458 22.32 45.5027 22.146 45.511C21.9721 45.5192 21.7992 45.4786 21.6472 45.3938ZM22.1253 30C22.1253 32.0886 22.955 34.0916 24.4318 35.5685C25.9086 37.0453 27.9117 37.875 30.0003 37.875C32.0888 37.875 34.0919 37.0454 35.5687 35.5685C37.0456 34.0917 37.8753 32.0886 37.8753 30.0001C37.4419 19.5562 22.5603 19.5532 22.1253 30ZM36.0003 29.9999C35.7195 22.058 24.2793 22.0613 24.0003 30.0001C24.2807 37.9413 35.7211 37.9392 36.0003 29.9999Z" fill="url(#paint0_linear_165_245)"/>
<defs>
<linearGradient id="paint0_linear_165_245" x1="40.2628" y1="8.24588" x2="7.32177" y2="58.7017" gradientUnits="userSpaceOnUse">
<stop stop-color="#F4DCB7"/>
<stop offset="1" stop-color="#AF7927"/>
</linearGradient>
</defs>
</svg>
