<svg width="60" height="60" viewBox="0 0 60 60" fill="none" xmlns="http://www.w3.org/2000/svg">
<path d="M52.8401 29.3559C53.5876 28.2656 53.3898 26.6556 52.4031 25.777L51.1082 24.6293C50.1169 23.7483 49.436 21.9566 49.597 20.6455L49.8018 18.9251C49.9605 17.6118 49.0381 16.2754 47.7547 15.9534L46.0734 15.5371C44.7876 15.2151 43.3547 13.9455 42.8832 12.7103L42.2645 11.0911C41.7952 9.85138 40.3554 9.10156 39.0697 9.41436L37.386 9.82608C36.1026 10.1412 34.2396 9.68347 33.2482 8.80715L31.9487 7.65712C30.9551 6.7808 29.3358 6.7808 28.3445 7.65712L27.045 8.80715C26.0537 9.68577 24.1906 10.1412 22.9072 9.82608L21.2235 9.41436C19.9378 9.09926 18.5003 9.84908 18.031 11.0911L17.4146 12.7103C16.9431 13.9455 15.5079 15.2174 14.2222 15.5371L12.5408 15.9534C11.2551 16.2754 10.3351 17.6118 10.4915 18.9251L10.6985 20.6455C10.8549 21.9566 10.1764 23.7506 9.18733 24.6293L7.89239 25.777C6.90107 26.6556 6.70556 28.2656 7.45768 29.3559L8.44211 30.7842C9.19193 31.8744 9.42193 33.7812 8.95502 35.0186L8.3409 36.6402C7.87629 37.8776 8.44901 39.391 9.61974 40.0097L11.1539 40.8171C12.3246 41.4358 13.4125 43.0136 13.5758 44.3246L13.7874 46.0497C13.9484 47.363 15.1652 48.4348 16.4854 48.4371H18.2174C19.5399 48.4417 21.2373 49.3319 21.9918 50.4175L22.9808 51.8481C23.7329 52.9338 25.3084 53.3225 26.4792 52.7084L28.0156 51.9056C29.1886 51.2892 31.1069 51.2892 32.2799 51.9056L33.814 52.7084C34.9894 53.3225 36.5603 52.9338 37.3147 51.8481L38.3038 50.4175C39.0582 49.3296 40.7556 48.4417 42.0805 48.4371H43.8124C45.1349 48.4348 46.3517 47.363 46.5127 46.0497L46.7266 44.3246C46.8876 43.0136 47.9755 41.4335 49.1462 40.8171L50.6781 40.0097C51.8465 39.391 52.4238 37.8776 51.9523 36.6402L51.3428 35.0186C50.8759 33.7812 51.1059 31.8744 51.8557 30.7842L52.8401 29.3559ZM30.1478 48.4003C20.0022 48.4003 11.7473 40.1454 11.7473 29.9999C11.7473 19.8543 20.0022 11.5994 30.1478 11.5994C40.2933 11.5994 48.5482 19.8543 48.5482 29.9999C48.5482 40.1454 40.2933 48.4003 30.1478 48.4003Z" fill="black"/>
<path d="M52.8401 29.3559C53.5876 28.2656 53.3898 26.6556 52.4031 25.777L51.1082 24.6293C50.1169 23.7483 49.436 21.9566 49.597 20.6455L49.8018 18.9251C49.9605 17.6118 49.0381 16.2754 47.7547 15.9534L46.0734 15.5371C44.7876 15.2151 43.3547 13.9455 42.8832 12.7103L42.2645 11.0911C41.7952 9.85138 40.3554 9.10156 39.0697 9.41436L37.386 9.82608C36.1026 10.1412 34.2396 9.68347 33.2482 8.80715L31.9487 7.65712C30.9551 6.7808 29.3358 6.7808 28.3445 7.65712L27.045 8.80715C26.0537 9.68577 24.1906 10.1412 22.9072 9.82608L21.2235 9.41436C19.9378 9.09926 18.5003 9.84908 18.031 11.0911L17.4146 12.7103C16.9431 13.9455 15.5079 15.2174 14.2222 15.5371L12.5408 15.9534C11.2551 16.2754 10.3351 17.6118 10.4915 18.9251L10.6985 20.6455C10.8549 21.9566 10.1764 23.7506 9.18733 24.6293L7.89239 25.777C6.90107 26.6556 6.70556 28.2656 7.45768 29.3559L8.44211 30.7842C9.19193 31.8744 9.42193 33.7812 8.95502 35.0186L8.3409 36.6402C7.87629 37.8776 8.44901 39.391 9.61974 40.0097L11.1539 40.8171C12.3246 41.4358 13.4125 43.0136 13.5758 44.3246L13.7874 46.0497C13.9484 47.363 15.1652 48.4348 16.4854 48.4371H18.2174C19.5399 48.4417 21.2373 49.3319 21.9918 50.4175L22.9808 51.8481C23.7329 52.9338 25.3084 53.3225 26.4792 52.7084L28.0156 51.9056C29.1886 51.2892 31.1069 51.2892 32.2799 51.9056L33.814 52.7084C34.9894 53.3225 36.5603 52.9338 37.3147 51.8481L38.3038 50.4175C39.0582 49.3296 40.7556 48.4417 42.0805 48.4371H43.8124C45.1349 48.4348 46.3517 47.363 46.5127 46.0497L46.7266 44.3246C46.8876 43.0136 47.9755 41.4335 49.1462 40.8171L50.6781 40.0097C51.8465 39.391 52.4238 37.8776 51.9523 36.6402L51.3428 35.0186C50.8759 33.7812 51.1059 31.8744 51.8557 30.7842L52.8401 29.3559ZM30.1478 48.4003C20.0022 48.4003 11.7473 40.1454 11.7473 29.9999C11.7473 19.8543 20.0022 11.5994 30.1478 11.5994C40.2933 11.5994 48.5482 19.8543 48.5482 29.9999C48.5482 40.1454 40.2933 48.4003 30.1478 48.4003Z" fill="url(#paint0_linear_165_265)"/>
<path d="M30.1473 13.8994C21.2553 13.8994 14.0469 21.1077 14.0469 29.9998C14.0469 38.8918 21.2553 46.1002 30.1473 46.1002C39.0393 46.1002 46.2477 38.8918 46.2477 29.9998C46.2477 21.1077 39.0393 13.8994 30.1473 13.8994ZM40.9737 27.0258L29.4734 38.5261C29.0226 38.9746 28.4337 39.2 27.8472 39.2C27.2607 39.2 26.6696 38.9746 26.2211 38.5261L19.3209 31.6259C18.4216 30.7266 18.4216 29.2729 19.3209 28.3736C20.2202 27.4743 21.6739 27.4743 22.5732 28.3736L27.8472 33.6476L37.7214 23.7735C38.6207 22.8742 40.0743 22.8742 40.9737 23.7735C41.873 24.6728 41.873 26.1265 40.9737 27.0258Z" fill="black"/>
<path d="M30.1473 13.8994C21.2553 13.8994 14.0469 21.1077 14.0469 29.9998C14.0469 38.8918 21.2553 46.1002 30.1473 46.1002C39.0393 46.1002 46.2477 38.8918 46.2477 29.9998C46.2477 21.1077 39.0393 13.8994 30.1473 13.8994ZM40.9737 27.0258L29.4734 38.5261C29.0226 38.9746 28.4337 39.2 27.8472 39.2C27.2607 39.2 26.6696 38.9746 26.2211 38.5261L19.3209 31.6259C18.4216 30.7266 18.4216 29.2729 19.3209 28.3736C20.2202 27.4743 21.6739 27.4743 22.5732 28.3736L27.8472 33.6476L37.7214 23.7735C38.6207 22.8742 40.0743 22.8742 40.9737 23.7735C41.873 24.6728 41.873 26.1265 40.9737 27.0258Z" fill="url(#paint1_linear_165_265)"/>
<defs>
<linearGradient id="paint0_linear_165_265" x1="39.1887" y1="10.9994" x2="10.4688" y2="55.2522" gradientUnits="userSpaceOnUse">
<stop stop-color="#F4DCB7"/>
<stop offset="1" stop-color="#AF7927"/>
</linearGradient>
<linearGradient id="paint1_linear_165_265" x1="36.4366" y1="16.6991" x2="16.2804" y2="47.5597" gradientUnits="userSpaceOnUse">
<stop stop-color="#F4DCB7"/>
<stop offset="1" stop-color="#AF7927"/>
</linearGradient>
</defs>
</svg>
