<svg width="24" height="24" viewBox="0 0 24 24" fill="none" xmlns="http://www.w3.org/2000/svg">
<g clip-path="url(#clip0_245_10946)">
<path fill-rule="evenodd" clip-rule="evenodd" d="M12 2.24998C11.8695 2.24998 11.7393 2.25259 11.6095 2.2578C11.509 2.24306 11.4073 2.24907 11.3104 2.27438C8.97657 2.43976 6.77096 3.44043 5.10571 5.10569C3.27723 6.93417 2.25 9.41412 2.25 12C2.25 13.2804 2.50219 14.5482 2.99217 15.7311C3.48216 16.9141 4.20034 17.9889 5.10571 18.8943C6.01108 19.7996 7.08591 20.5178 8.26884 21.0078C9.23886 21.4096 10.266 21.6515 11.3103 21.7256C11.4072 21.7509 11.509 21.7569 11.6095 21.7422C11.7395 21.7474 11.8697 21.75 12 21.75C12.1304 21.75 12.2606 21.7474 12.3906 21.7422C12.4911 21.7569 12.593 21.7509 12.6899 21.7255C13.7342 21.6515 14.7612 21.4096 15.7312 21.0078C16.9141 20.5178 17.9889 19.7996 18.8943 18.8943C19.7997 17.9889 20.5178 16.9141 21.0078 15.7311C21.4978 14.5482 21.75 13.2804 21.75 12C21.75 9.41412 20.7228 6.93417 18.8943 5.10569C17.2291 3.44048 15.0236 2.43982 12.6898 2.27439C12.5929 2.24907 12.4911 2.24305 12.3907 2.2578C12.2608 2.2526 12.1305 2.24998 12 2.24998ZM12.078 3.75035C12.052 3.7501 12.026 3.74998 12 3.74998C11.974 3.74998 11.9481 3.7501 11.9221 3.75035C11.0935 5.15659 10.4847 6.67403 10.111 8.24998H13.8892C13.5154 6.67403 12.9067 5.15659 12.078 3.75035ZM14.1713 9.74998H9.82888C9.72503 10.4927 9.67236 11.2445 9.67236 12C9.67236 12.7555 9.72503 13.5072 9.82888 14.25H14.1713C14.2751 13.5072 14.3278 12.7555 14.3278 12C14.3278 11.2445 14.2751 10.4927 14.1713 9.74998ZM15.6846 14.25C15.7797 13.5063 15.8278 12.7549 15.8278 12C15.8278 11.2451 15.7797 10.4936 15.6846 9.74998H19.9373C20.143 10.4757 20.25 11.2323 20.25 12C20.25 12.7623 20.1443 13.5195 19.9373 14.25H15.6846ZM13.8892 15.75H10.111C10.4847 17.3259 11.0935 18.8434 11.9221 20.2496C11.9481 20.2499 11.974 20.25 12 20.25C12.026 20.25 12.052 20.2499 12.078 20.2496C12.9067 18.8434 13.5154 17.3259 13.8892 15.75ZM13.9096 20.0259C14.5976 18.6688 15.1069 17.2314 15.4271 15.75H19.3485C18.9564 16.5184 18.4455 17.2217 17.8336 17.8336C17.0675 18.5997 16.1581 19.2074 15.1571 19.622C14.7517 19.7899 14.3345 19.9248 13.9096 20.0259ZM15.4271 8.24998C15.1069 6.76854 14.5976 5.33117 13.9096 3.974C15.3833 4.32468 16.745 5.07767 17.8336 6.16635C18.4503 6.78305 18.9593 7.48734 19.3485 8.24998H15.4271ZM10.0905 20.026C9.40252 18.6688 8.89322 17.2314 8.57301 15.75H4.65153C5.04364 16.5184 5.55448 17.2217 6.16637 17.8336C6.93245 18.5997 7.84193 19.2074 8.84286 19.622C9.24832 19.7899 9.66558 19.9249 10.0905 20.026ZM8.17236 12C8.17236 11.2451 8.2205 10.4936 8.31554 9.74998H4.06273C3.857 10.4757 3.75 11.2323 3.75 12C3.75 12.7623 3.85566 13.5195 4.06275 14.25H8.31554C8.2205 13.5063 8.17236 12.7549 8.17236 12ZM8.57301 8.24998C8.89323 6.76852 9.40253 5.33114 10.0906 3.97396C8.61677 4.32462 7.25509 5.07763 6.16637 6.16635C5.54966 6.78305 5.04068 7.48734 4.65152 8.24998H8.57301Z" fill="url(#paint0_linear_245_10946)"/>
</g>
<defs>
<linearGradient id="paint0_linear_245_10946" x1="15.8087" y1="3.94536" x2="3.60238" y2="22.6338" gradientUnits="userSpaceOnUse">
<stop stop-color="#F4DCB7"/>
<stop offset="1" stop-color="#AF7927"/>
</linearGradient>
<clipPath id="clip0_245_10946">
<rect width="24" height="24" fill="white"/>
</clipPath>
</defs>
</svg>
