<svg width="60" height="60" viewBox="0 0 60 60" fill="none" xmlns="http://www.w3.org/2000/svg">
<path d="M22.4986 14.9625C19.7608 14.9625 17.1352 16.0501 15.1993 17.986C13.2634 19.9219 12.1758 22.5475 12.1758 25.2853C12.1758 28.0231 13.2634 30.6487 15.1993 32.5846C17.1352 34.5205 19.7608 35.6081 22.4986 35.6081C23.4559 35.6074 24.4086 35.4749 25.3298 35.2144C25.3205 34.9603 25.3111 34.7072 25.3111 34.4541V25.2853C25.3102 24.7338 25.4715 24.1942 25.7749 23.7337C26.0782 23.2731 26.5103 22.9119 27.0173 22.695L31.7236 20.6775C30.8701 18.9608 29.5544 17.5164 27.9246 16.5068C26.2949 15.4971 24.4157 14.9623 22.4986 14.9625Z" fill="url(#paint0_linear_172_3528)"/>
<path d="M20.6265 13.0856H24.3765C24.5365 13.0852 24.6937 13.0439 24.8331 12.9656C24.9726 12.8873 25.0897 12.7746 25.1733 12.6383C25.2569 12.502 25.3043 12.3465 25.3109 12.1867C25.3175 12.0269 25.2831 11.868 25.2109 11.7253L23.3359 7.9753C23.2493 7.83146 23.1269 7.71246 22.9807 7.62986C22.8345 7.54725 22.6695 7.50385 22.5015 7.50385C22.3336 7.50385 22.1686 7.54725 22.0224 7.62986C21.8762 7.71246 21.7538 7.83146 21.6672 7.9753L19.7922 11.7253C19.72 11.868 19.6856 12.0269 19.6922 12.1867C19.6988 12.3465 19.7461 12.502 19.8298 12.6383C19.9134 12.7746 20.0305 12.8873 20.17 12.9656C20.3094 13.0439 20.4666 13.0852 20.6265 13.0856Z" fill="url(#paint1_linear_172_3528)"/>
<path d="M11.0072 17.6184C11.0572 17.7708 11.1456 17.9078 11.2638 18.0163C11.382 18.1248 11.526 18.2012 11.6822 18.2381C11.7529 18.254 11.8254 18.2603 11.8978 18.2569C12.0197 18.2571 12.1405 18.2333 12.2531 18.1866C12.3658 18.1399 12.468 18.0714 12.554 17.985L15.2072 15.329C15.3213 15.2179 15.4047 15.0791 15.4491 14.9261C15.4934 14.7731 15.4973 14.6112 15.4603 14.4562C15.4236 14.3 15.3475 14.1559 15.2391 14.0375C15.1308 13.9192 14.9939 13.8306 14.8415 13.7803L10.8665 12.4481C10.7005 12.3912 10.5218 12.382 10.3508 12.4216C10.1798 12.4613 10.0234 12.5481 9.89933 12.6723C9.77526 12.7964 9.68854 12.9529 9.64904 13.124C9.60955 13.295 9.61885 13.4737 9.67591 13.6397L11.0072 17.6184Z" fill="url(#paint2_linear_172_3528)"/>
<path d="M10.3127 27.1622V23.4122C10.3123 23.2523 10.2711 23.0951 10.1929 22.9557C10.1148 22.8162 10.0022 22.699 9.86597 22.6153C9.72975 22.5316 9.57438 22.4841 9.41463 22.4774C9.25488 22.4707 9.09606 22.5049 8.95328 22.5769L5.20328 24.4519C5.04923 24.5303 4.91989 24.6499 4.82955 24.7973C4.73922 24.9447 4.69141 25.1143 4.69141 25.2872C4.69141 25.4601 4.73922 25.6296 4.82955 25.777C4.91989 25.9244 5.04923 26.044 5.20328 26.1225L8.95328 27.9975C9.08425 28.0634 9.22852 28.0987 9.37515 28.1006C9.55058 28.1005 9.72255 28.0518 9.87203 27.96C10.0073 27.8754 10.1187 27.7578 10.1958 27.6182C10.2729 27.4786 10.3131 27.3216 10.3127 27.1622Z" fill="url(#paint3_linear_172_3528)"/>
<path d="M12.5527 32.5865C12.4419 32.4723 12.3032 32.3889 12.1503 32.3445C11.9975 32.3001 11.8357 32.2963 11.6809 32.3334C11.5248 32.3702 11.3809 32.4465 11.2627 32.5548C11.1445 32.6631 11.0561 32.7999 11.0059 32.9522L9.67461 36.9319C9.62673 37.0731 9.61325 37.2238 9.6353 37.3714C9.65734 37.5189 9.71428 37.659 9.80138 37.7802C9.88848 37.9013 10.0032 37.9999 10.1361 38.0677C10.2689 38.1356 10.4161 38.1707 10.5652 38.1703C10.6669 38.1685 10.7679 38.1527 10.8652 38.1234L14.8402 36.7903C14.9925 36.7401 15.1293 36.6517 15.2376 36.5335C15.346 36.4153 15.4222 36.2713 15.459 36.1153C15.4962 35.9604 15.4924 35.7984 15.448 35.6454C15.4037 35.4923 15.3202 35.3535 15.2059 35.2425L12.5527 32.5865Z" fill="url(#paint4_linear_172_3528)"/>
<path d="M24.3735 37.485H20.6235C20.464 37.4848 20.3072 37.5252 20.1678 37.6025C20.0283 37.6797 19.9109 37.7913 19.8266 37.9265C19.7425 38.0639 19.6948 38.2206 19.6883 38.3815C19.6817 38.5425 19.7164 38.7025 19.7891 38.8462L21.6641 42.5962C21.7427 42.7498 21.8623 42.8787 22.0095 42.9687C22.1567 43.0587 22.3259 43.1063 22.4985 43.1063C22.671 43.1063 22.8402 43.0587 22.9874 42.9687C23.1346 42.8787 23.2542 42.7498 23.3328 42.5962L25.2078 38.8462C25.2805 38.7025 25.3152 38.5425 25.3086 38.3815C25.3021 38.2206 25.2545 38.0639 25.1703 37.9265C25.086 37.7913 24.9686 37.6797 24.8291 37.6025C24.6897 37.5252 24.5329 37.4848 24.3735 37.485Z" fill="url(#paint5_linear_172_3528)"/>
<path d="M32.447 17.985C32.533 18.0714 32.6353 18.14 32.748 18.1866C32.8606 18.2333 32.9814 18.2572 33.1033 18.2569C33.1757 18.2604 33.2482 18.2541 33.3189 18.2381C33.4751 18.2012 33.6191 18.1249 33.7373 18.0164C33.8555 17.9079 33.9438 17.7709 33.9939 17.6184L35.3252 13.6397C35.3796 13.4739 35.387 13.2962 35.3465 13.1265C35.306 12.9567 35.2193 12.8015 35.096 12.6781C34.9726 12.5546 34.8175 12.4678 34.6478 12.4272C34.478 12.3866 34.3004 12.3939 34.1345 12.4481L30.1595 13.7813C30.0072 13.8316 29.8703 13.9201 29.762 14.0385C29.6536 14.1568 29.5775 14.301 29.5408 14.4572C29.5038 14.6121 29.5076 14.774 29.552 14.927C29.5964 15.08 29.6797 15.2189 29.7939 15.33L32.447 17.985Z" fill="url(#paint6_linear_172_3528)"/>
<path d="M54.7444 24.4228L41.6194 18.7922C41.5027 18.7421 41.377 18.7163 41.25 18.7163C41.123 18.7163 40.9973 18.7421 40.8806 18.7922L27.7556 24.4228C27.5869 24.4951 27.4431 24.6154 27.3421 24.7688C27.2411 24.9221 27.1873 25.1017 27.1875 25.2853V34.4503C27.1898 36.9885 27.7963 39.4897 28.9568 41.7471C30.1174 44.0044 31.7986 45.9531 33.8616 47.4319L40.7053 52.3247C40.8643 52.4381 41.0547 52.4991 41.25 52.4991C41.4453 52.4991 41.6357 52.4381 41.7947 52.3247L48.6384 47.4319C50.7014 45.9531 52.3827 44.0045 53.5433 41.7471C54.7038 39.4898 55.3103 36.9885 55.3125 34.4503V25.2853C55.3127 25.1017 55.2589 24.9221 55.1579 24.7688C55.0569 24.6154 54.9131 24.4951 54.7444 24.4228ZM49.6875 34.4503C49.686 36.0926 49.2935 37.711 48.5427 39.1717C47.7918 40.6323 46.7041 41.8933 45.3694 42.8503L41.7947 45.4059C41.6357 45.5194 41.4453 45.5804 41.25 45.5804C41.0547 45.5804 40.8643 45.5194 40.7053 45.4059L37.1306 42.8503C35.7959 41.8933 34.7082 40.6323 33.9573 39.1717C33.2065 37.711 32.814 36.0926 32.8125 34.4503V28.9987C32.8123 28.8151 32.8661 28.6355 32.9671 28.4822C33.0681 28.3289 33.2119 28.2086 33.3806 28.1362L40.8806 24.9187C40.9972 24.8682 41.1229 24.8421 41.25 24.8421C41.3771 24.8421 41.5028 24.8682 41.6194 24.9187L49.1194 28.1362C49.2881 28.2086 49.4319 28.3289 49.5329 28.4822C49.6339 28.6355 49.6877 28.8151 49.6875 28.9987V34.4503Z" fill="url(#paint7_linear_172_3528)"/>
<path d="M34.6875 29.6175V34.4503C34.6888 35.7941 35.0099 37.1183 35.6243 38.3134C36.2388 39.5085 37.1288 40.5401 38.2209 41.3231L41.25 43.4887L44.2791 41.3231C45.3712 40.5401 46.2612 39.5085 46.8757 38.3134C47.4901 37.1183 47.8112 35.7941 47.8125 34.4503V29.6175L41.25 26.805L34.6875 29.6175Z" fill="url(#paint8_linear_172_3528)"/>
<defs>
<linearGradient id="paint0_linear_172_3528" x1="25.7677" y1="16.7576" x2="12.5743" y2="35.8835" gradientUnits="userSpaceOnUse">
<stop stop-color="#F4DCB7"/>
<stop offset="1" stop-color="#AF7927"/>
</linearGradient>
<linearGradient id="paint1_linear_172_3528" x1="23.5993" y1="7.98916" x2="20.1151" y2="13.3605" gradientUnits="userSpaceOnUse">
<stop stop-color="#F4DCB7"/>
<stop offset="1" stop-color="#AF7927"/>
</linearGradient>
<linearGradient id="paint2_linear_172_3528" x1="13.6999" y1="12.907" x2="10.0316" y2="18.5235" gradientUnits="userSpaceOnUse">
<stop stop-color="#F4DCB7"/>
<stop offset="1" stop-color="#AF7927"/>
</linearGradient>
<linearGradient id="paint3_linear_172_3528" x1="8.59995" y1="22.9656" x2="5.07886" y2="28.3539" gradientUnits="userSpaceOnUse">
<stop stop-color="#F4DCB7"/>
<stop offset="1" stop-color="#AF7927"/>
</linearGradient>
<linearGradient id="paint4_linear_172_3528" x1="13.6991" y1="32.8178" x2="10.029" y2="38.4344" gradientUnits="userSpaceOnUse">
<stop stop-color="#F4DCB7"/>
<stop offset="1" stop-color="#AF7927"/>
</linearGradient>
<linearGradient id="paint5_linear_172_3528" x1="23.5965" y1="37.9737" x2="20.078" y2="43.3614" gradientUnits="userSpaceOnUse">
<stop stop-color="#F4DCB7"/>
<stop offset="1" stop-color="#AF7927"/>
</linearGradient>
<linearGradient id="paint6_linear_172_3528" x1="33.5878" y1="12.9105" x2="29.9219" y2="18.5233" gradientUnits="userSpaceOnUse">
<stop stop-color="#F4DCB7"/>
<stop offset="1" stop-color="#AF7927"/>
</linearGradient>
<linearGradient id="paint7_linear_172_3528" x1="46.7433" y1="21.6537" x2="24.3128" y2="50.2446" gradientUnits="userSpaceOnUse">
<stop stop-color="#F4DCB7"/>
<stop offset="1" stop-color="#AF7927"/>
</linearGradient>
<linearGradient id="paint8_linear_172_3528" x1="43.8135" y1="28.2556" x2="32.603" y2="41.7585" gradientUnits="userSpaceOnUse">
<stop stop-color="#F4DCB7"/>
<stop offset="1" stop-color="#AF7927"/>
</linearGradient>
</defs>
</svg>
