<svg width="60" height="60" viewBox="0 0 60 60" fill="none" xmlns="http://www.w3.org/2000/svg">
<path d="M48.3035 39.2874L39.0371 17.048C38.5895 15.9737 37.0675 15.9737 36.6198 17.048L27.3534 39.2874C24.239 46.7622 29.7309 55 37.8285 55C45.9262 55 51.4181 46.7622 48.3035 39.2874Z" fill="url(#paint0_linear_172_3523)"/>
<path d="M23.9522 29.9125L18.4555 16.7203C18.1899 16.083 17.2871 16.083 17.0216 16.7203L11.5248 29.9125C9.67734 34.3464 12.935 39.2331 17.7385 39.2331C22.5419 39.2331 25.7998 34.3464 23.9522 29.9125Z" fill="url(#paint1_linear_172_3523)"/>
<path d="M30.7201 12.8718L27.5548 5.27524C27.4019 4.90825 26.8821 4.90825 26.7292 5.27524L23.5639 12.8717C22.5001 15.4249 24.3759 18.2388 27.142 18.2388C29.908 18.2388 31.7839 15.425 30.7201 12.8718Z" fill="url(#paint2_linear_172_3523)"/>
<defs>
<linearGradient id="paint0_linear_172_3523" x1="42.266" y1="19.6122" x2="15.9252" y2="43.2531" gradientUnits="userSpaceOnUse">
<stop stop-color="#F4DCB7"/>
<stop offset="1" stop-color="#AF7927"/>
</linearGradient>
<linearGradient id="paint1_linear_172_3523" x1="20.3708" y1="18.2413" x2="4.74563" y2="32.2649" gradientUnits="userSpaceOnUse">
<stop stop-color="#F4DCB7"/>
<stop offset="1" stop-color="#AF7927"/>
</linearGradient>
<linearGradient id="paint2_linear_172_3523" x1="28.6578" y1="6.15107" x2="19.6603" y2="14.2264" gradientUnits="userSpaceOnUse">
<stop stop-color="#F4DCB7"/>
<stop offset="1" stop-color="#AF7927"/>
</linearGradient>
</defs>
</svg>
