<svg width="60" height="60" viewBox="0 0 60 60" fill="none" xmlns="http://www.w3.org/2000/svg">
<path d="M37.9194 24.805C41.2345 21.7826 45.7175 17.695 46.1261 7.92969H48.0859C48.6382 7.92969 49.0859 7.48197 49.0859 6.92969V6C49.0859 5.44772 48.6382 5 48.0859 5H12C11.4477 5 11 5.44772 11 6V6.92969C11 7.48197 11.4477 7.92969 12 7.92969H13.9599C14.3685 17.695 18.8515 21.7826 22.1665 24.805C24.3902 26.8324 25.6484 28.0733 25.6484 30C25.6484 31.9267 24.3902 33.1676 22.1665 35.195C18.8515 38.2174 14.3685 42.305 13.9599 52.0703H12C11.4477 52.0703 11 52.518 11 53.0703V54C11 54.5523 11.4477 55 12 55H48.0859C48.6382 55 49.0859 54.5523 49.0859 54V53.0703C49.0859 52.518 48.6382 52.0703 48.0859 52.0703H46.1261C45.7175 42.305 41.2345 38.2174 37.9194 35.195C35.6957 33.1676 34.4375 31.9267 34.4375 30C34.4375 28.0733 35.6957 26.8324 37.9194 24.805ZM28.5781 40.9803C28.1257 41.0736 27.6787 41.2095 27.2425 41.3899L18.2701 45.1027C19.7354 41.3771 22.0953 39.2245 24.1403 37.3601C26.4226 35.2793 28.5781 33.314 28.5781 30V40.9803ZM35.9456 37.3601C37.9906 39.2245 40.3505 41.3772 41.8158 45.1026L32.8435 41.3898C32.4072 41.2094 31.9603 41.0735 31.5078 40.9802V30C31.5078 33.314 33.6634 35.2793 35.9456 37.3601ZM18.2187 14.7656C17.5104 12.92 17.0212 10.6916 16.8932 7.92969H43.1927C43.0646 10.6916 42.5756 12.92 41.8672 14.7656H18.2187Z" fill="url(#paint0_linear_172_3543)"/>
<defs>
<linearGradient id="paint0_linear_172_3543" x1="37.4818" y1="9.34735" x2="3.70168" y2="48.7431" gradientUnits="userSpaceOnUse">
<stop stop-color="#F4DCB7"/>
<stop offset="1" stop-color="#AF7927"/>
</linearGradient>
</defs>
</svg>
