<svg width="60" height="60" viewBox="0 0 60 60" fill="none" xmlns="http://www.w3.org/2000/svg">
<path fill-rule="evenodd" clip-rule="evenodd" d="M34.5604 18.3462C28.4994 17.0756 23.762 12.3382 22.4916 6.27705C22.3355 5.53301 21.6793 5 20.9188 5C20.1584 5 19.5021 5.53301 19.3462 6.27715C18.0757 12.3382 13.3383 17.0755 7.27725 18.3459C6.53311 18.5019 6 19.1582 6 19.9186C6 20.6789 6.53301 21.3353 7.27725 21.4912C13.3382 22.7618 18.0754 27.4991 19.3459 33.5602C19.5019 34.3043 20.1581 34.8374 20.9186 34.8374C21.6789 34.8374 22.3353 34.3044 22.4912 33.5602C23.7618 27.4991 28.4993 22.7618 34.5604 21.4915C35.3045 21.3355 35.8376 20.6793 35.8376 19.9188C35.8375 19.1585 35.3045 18.5021 34.5604 18.3462ZM31.9041 44.891C29.0485 44.2925 26.8165 42.0605 26.2177 39.2046C26.0618 38.4605 25.4055 37.9273 24.6451 37.9273C23.8847 37.9273 23.2284 38.4603 23.0724 39.2045C22.4737 42.0603 20.2416 44.2923 17.3859 44.8909C16.6417 45.0469 16.1086 45.7032 16.1086 46.4636C16.1086 47.2239 16.6416 47.8803 17.3859 48.0362C20.2415 48.6349 22.4736 50.867 23.0722 53.7228C23.2282 54.4669 23.8844 55 24.6449 55C25.4052 55 26.0616 54.4671 26.2175 53.7228C26.8163 50.867 29.0484 48.635 31.9041 48.0363C32.6483 47.8804 33.1814 47.224 33.1814 46.4637C33.1814 45.7033 32.6484 45.0471 31.9041 44.891ZM45.9276 22.3272C46.7367 26.187 49.7536 29.204 53.6135 30.0132C54.3577 30.1691 54.8907 30.8255 54.8907 31.5858C54.8907 32.3462 54.3576 33.0024 53.6134 33.1585C49.7536 33.9675 46.7367 36.9844 45.9274 40.8443C45.7715 41.5887 45.1151 42.1216 44.3548 42.1216C43.5943 42.1216 42.9381 41.5885 42.7821 40.8443C41.973 36.9844 38.9561 33.9675 35.0963 33.1583C34.352 33.0022 33.819 32.346 33.819 31.5856C33.819 30.8253 34.3521 30.1689 35.0963 30.013C38.9562 29.2039 41.9731 26.187 42.7823 22.3271C42.9382 21.5828 43.5946 21.0499 44.3549 21.0499C45.1154 21.0499 45.7716 21.583 45.9276 22.3272Z" fill="url(#paint0_linear_172_3518)"/>
<defs>
<linearGradient id="paint0_linear_172_3518" x1="39.9945" y1="9.34735" x2="8.41995" y2="56.6175" gradientUnits="userSpaceOnUse">
<stop stop-color="#F4DCB7"/>
<stop offset="1" stop-color="#AF7927"/>
</linearGradient>
</defs>
</svg>
