<svg width="24" height="24" viewBox="0 0 24 24" fill="none" xmlns="http://www.w3.org/2000/svg">
<mask id="path-1-inside-1_2021_2358" fill="white">
<path d="M12 2.25C7.175 2.25 3.25 6.175 3.25 11C3.25 16.118 7.94699 19.2199 11.055 21.2729L11.584 21.624C11.71 21.708 11.855 21.75 12 21.75C12.145 21.75 12.29 21.708 12.416 21.624L12.945 21.2729C16.053 19.2199 20.75 16.118 20.75 11C20.75 6.175 16.825 2.25 12 2.25ZM12.119 20.021L12 20.1001L11.881 20.021C8.871 18.033 4.75 15.311 4.75 11C4.75 7.002 8.002 3.75 12 3.75C15.998 3.75 19.25 7.002 19.25 11C19.25 15.311 15.128 18.034 12.119 20.021ZM12 7.75C10.208 7.75 8.75 9.208 8.75 11C8.75 12.792 10.208 14.25 12 14.25C13.792 14.25 15.25 12.792 15.25 11C15.25 9.208 13.792 7.75 12 7.75ZM12 12.75C11.035 12.75 10.25 11.965 10.25 11C10.25 10.035 11.035 9.25 12 9.25C12.965 9.25 13.75 10.035 13.75 11C13.75 11.965 12.965 12.75 12 12.75Z"/>
</mask>
<path d="M12 2.25C7.175 2.25 3.25 6.175 3.25 11C3.25 16.118 7.94699 19.2199 11.055 21.2729L11.584 21.624C11.71 21.708 11.855 21.75 12 21.75C12.145 21.75 12.29 21.708 12.416 21.624L12.945 21.2729C16.053 19.2199 20.75 16.118 20.75 11C20.75 6.175 16.825 2.25 12 2.25ZM12.119 20.021L12 20.1001L11.881 20.021C8.871 18.033 4.75 15.311 4.75 11C4.75 7.002 8.002 3.75 12 3.75C15.998 3.75 19.25 7.002 19.25 11C19.25 15.311 15.128 18.034 12.119 20.021ZM12 7.75C10.208 7.75 8.75 9.208 8.75 11C8.75 12.792 10.208 14.25 12 14.25C13.792 14.25 15.25 12.792 15.25 11C15.25 9.208 13.792 7.75 12 7.75ZM12 12.75C11.035 12.75 10.25 11.965 10.25 11C10.25 10.035 11.035 9.25 12 9.25C12.965 9.25 13.75 10.035 13.75 11C13.75 11.965 12.965 12.75 12 12.75Z" fill="url(#paint0_linear_2021_2358)"/>
<path d="M11.055 21.2729L12.1609 19.6065L12.1573 19.6042L11.055 21.2729ZM11.584 21.624L12.6934 19.9599L12.6899 19.9576L11.584 21.624ZM12.416 21.624L11.3101 19.9576L11.3066 19.9599L12.416 21.624ZM12.945 21.2729L11.8427 19.6042L11.8391 19.6065L12.945 21.2729ZM12.119 20.021L11.0169 18.352L11.0119 18.3554L12.119 20.021ZM12 20.1001L10.8929 21.7657L12 22.5016L13.1071 21.7657L12 20.1001ZM11.881 20.021L12.9881 18.3554L12.9832 18.3521L11.881 20.021ZM12 0.25C6.07043 0.25 1.25 5.07043 1.25 11H5.25C5.25 7.27957 8.27957 4.25 12 4.25V0.25ZM1.25 11C1.25 14.2313 2.74916 16.7508 4.52591 18.6516C6.2751 20.5229 8.42568 21.9331 9.95266 22.9417L12.1573 19.6042C10.5763 18.5598 8.82439 17.3925 7.44808 15.9201C6.09934 14.4772 5.25 12.8867 5.25 11H1.25ZM9.94908 22.9394L10.4781 23.2904L12.6899 19.9576L12.1609 19.6065L9.94908 22.9394ZM10.4746 23.2881C10.9363 23.5959 11.4689 23.75 12 23.75V19.75C12.2411 19.75 12.4837 19.8201 12.6934 19.9599L10.4746 23.2881ZM12 23.75C12.5311 23.75 13.0637 23.5959 13.5254 23.2881L11.3066 19.9599C11.5163 19.8201 11.7589 19.75 12 19.75V23.75ZM13.5219 23.2904L14.0509 22.9394L11.8391 19.6065L11.3101 19.9576L13.5219 23.2904ZM14.0473 22.9417C15.5743 21.9331 17.7249 20.5229 19.4741 18.6516C21.2508 16.7508 22.75 14.2313 22.75 11H18.75C18.75 12.8867 17.9007 14.4772 16.5519 15.9201C15.1756 17.3925 13.4237 18.5598 11.8427 19.6042L14.0473 22.9417ZM22.75 11C22.75 5.07043 17.9296 0.25 12 0.25V4.25C15.7204 4.25 18.75 7.27957 18.75 11H22.75ZM11.0119 18.3554L10.8929 18.4345L13.1071 21.7657L13.2261 21.6866L11.0119 18.3554ZM13.1071 18.4345L12.9881 18.3554L10.7739 21.6866L10.8929 21.7657L13.1071 18.4345ZM12.9832 18.3521C11.4465 17.3372 9.85663 16.2772 8.63083 14.9979C7.42985 13.7445 6.75 12.4563 6.75 11H2.75C2.75 13.8547 4.13065 16.083 5.74267 17.7653C7.32986 19.4218 9.30546 20.7168 10.7788 21.6899L12.9832 18.3521ZM6.75 11C6.75 8.10657 9.10657 5.75 12 5.75V1.75C6.89743 1.75 2.75 5.89743 2.75 11H6.75ZM12 5.75C14.8934 5.75 17.25 8.10657 17.25 11H21.25C21.25 5.89743 17.1026 1.75 12 1.75V5.75ZM17.25 11C17.25 12.4562 16.57 13.7447 15.3688 14.9983C14.1429 16.2777 12.5529 17.3377 11.0169 18.352L13.2211 21.6899C14.6941 20.7173 16.6696 19.4223 18.257 17.7657C19.869 16.0833 21.25 13.8548 21.25 11H17.25ZM12 5.75C9.10343 5.75 6.75 8.10343 6.75 11H10.75C10.75 10.3126 11.3126 9.75 12 9.75V5.75ZM6.75 11C6.75 13.8966 9.10343 16.25 12 16.25V12.25C11.3126 12.25 10.75 11.6874 10.75 11H6.75ZM12 16.25C14.8966 16.25 17.25 13.8966 17.25 11H13.25C13.25 11.6874 12.6874 12.25 12 12.25V16.25ZM17.25 11C17.25 8.10343 14.8966 5.75 12 5.75V9.75C12.6874 9.75 13.25 10.3126 13.25 11H17.25ZM12 10.75C12.1396 10.75 12.25 10.8604 12.25 11H8.25C8.25 13.0696 9.93043 14.75 12 14.75V10.75ZM12.25 11C12.25 11.1396 12.1396 11.25 12 11.25V7.25C9.93043 7.25 8.25 8.93043 8.25 11H12.25ZM12 11.25C11.8604 11.25 11.75 11.1396 11.75 11H15.75C15.75 8.93043 14.0696 7.25 12 7.25V11.25ZM11.75 11C11.75 10.8604 11.8604 10.75 12 10.75V14.75C14.0696 14.75 15.75 13.0696 15.75 11H11.75Z" fill="url(#paint1_linear_2021_2358)" mask="url(#path-1-inside-1_2021_2358)"/>
<defs>
<linearGradient id="paint0_linear_2021_2358" x1="15.418" y1="3.94547" x2="2.73346" y2="21.3745" gradientUnits="userSpaceOnUse">
<stop stop-color="#F4DCB7"/>
<stop offset="1" stop-color="#AF7927"/>
</linearGradient>
<linearGradient id="paint1_linear_2021_2358" x1="15.418" y1="3.94547" x2="2.73346" y2="21.3745" gradientUnits="userSpaceOnUse">
<stop stop-color="#F4DCB7"/>
<stop offset="1" stop-color="#AF7927"/>
</linearGradient>
</defs>
</svg>
