<svg width="60" height="60" viewBox="0 0 60 60" fill="none" xmlns="http://www.w3.org/2000/svg">
<path fill-rule="evenodd" clip-rule="evenodd" d="M16.3695 28.2492C15.3922 27.2719 14.041 26.666 12.548 26.666C11.0551 26.666 9.70508 27.2707 8.72656 28.2492C7.74922 29.2266 7.14336 30.5777 7.14336 32.0707C7.14336 33.5637 7.74805 34.9137 8.72656 35.8922C9.70391 36.8695 11.0551 37.4754 12.548 37.4754C14.041 37.4754 15.391 36.8707 16.3695 35.8922C17.3469 34.9148 17.9527 33.5637 17.9527 32.0707C17.9527 30.5777 17.348 29.2277 16.3695 28.2492ZM49.3391 33.1488L50.2566 35.3977L48.691 37.2504C48.3992 37.5961 48.4414 38.1129 48.7871 38.4047C48.957 38.5488 49.168 38.6109 49.3742 38.5969C49.5805 38.5828 51.7977 38.4199 51.7977 38.4199L53.075 40.4801C53.3129 40.8645 53.8168 40.984 54.2012 40.7461C54.391 40.6289 54.5164 40.4461 54.5656 40.2457C54.6148 40.0453 55.1445 37.8891 55.1445 37.8891L57.5012 37.3102C57.9406 37.2023 58.209 36.7582 58.1012 36.3188C58.0449 36.0879 57.8949 35.9039 57.7016 35.7973L55.6754 34.541L55.8535 32.1176C55.8852 31.6664 55.5453 31.2738 55.093 31.2422C54.8598 31.2258 54.643 31.309 54.4824 31.4543L52.6543 33L50.4055 32.0824C49.9859 31.9125 49.5078 32.1152 49.3379 32.5348C49.2547 32.7398 49.2605 32.9602 49.3379 33.15L49.3391 33.1488ZM13.0484 25.0418L12.6277 24.0902L15.302 21.416L19.2898 23.1785C19.5383 23.2875 19.8113 23.2641 20.0293 23.1387C20.5379 22.8527 21.0629 22.5973 21.6031 22.3734C22.141 22.1508 22.693 21.9586 23.259 21.8004C23.532 21.7242 23.7336 21.518 23.8168 21.2672L25.373 17.2453H29.1582L30.7297 21.307C30.8258 21.5566 31.032 21.7324 31.2723 21.8004C31.8383 21.9598 32.3914 22.152 32.9293 22.3746C33.4719 22.5996 33.9992 22.8562 34.5102 23.1445C34.7434 23.2758 35.0141 23.2793 35.2414 23.1797C35.4688 23.0801 39.2281 21.4172 39.2281 21.4172L41.9023 24.0914L40.1398 28.0781C40.0309 28.3266 40.0543 28.5996 40.1797 28.8176C40.4656 29.3262 40.7211 29.8512 40.9449 30.3902C41.1676 30.9281 41.3598 31.4812 41.5191 32.0461C41.5953 32.3191 41.8016 32.5207 42.0523 32.6039L46.0742 34.1602V37.9453L42.0125 39.5168C41.7629 39.6129 41.5871 39.8191 41.5191 40.0594C41.3598 40.6254 41.1676 41.1785 40.9449 41.7164C40.7199 42.259 40.4633 42.7863 40.175 43.2973C40.0438 43.5305 40.0402 43.8012 40.1398 44.0285L41.9023 48.0152L39.2281 50.6894L35.2402 48.927C34.9918 48.818 34.7188 48.8414 34.5008 48.9668C33.9922 49.2527 33.4672 49.5082 32.9281 49.732C32.3902 49.9547 31.8383 50.1469 31.2723 50.3051C30.9992 50.3812 30.7977 50.5875 30.7145 50.8383L29.1582 54.8602H24.8633V48.2602C25.0824 48.3035 25.3016 48.3398 25.5219 48.3715C26.0996 48.4523 26.682 48.4945 27.2656 48.4945C30.7016 48.4945 33.8117 47.1023 36.0641 44.85C38.3152 42.5988 39.7086 39.4875 39.7086 36.0516C39.7086 32.6156 38.3164 29.5055 36.0641 27.2531C33.8129 25.002 30.7016 23.6086 27.2656 23.6086C25.3625 23.6086 23.5578 24.0375 21.9406 24.8039C20.4629 25.5047 19.1469 26.4867 18.0617 27.6785C17.8965 27.4711 17.7195 27.273 17.532 27.0855C16.3672 25.9207 14.7969 25.1613 13.0496 25.0395L13.0484 25.0418ZM49.3051 15.0797C49.3824 14.8887 49.3883 14.6695 49.3051 14.4645C49.1352 14.0449 48.657 13.8422 48.2375 14.0121L45.9887 14.9297L44.1605 13.384C44 13.2375 43.7832 13.1555 43.55 13.1719C43.0988 13.2035 42.7578 13.5961 42.7895 14.0473L42.9676 16.4707L40.9414 17.727C40.748 17.8336 40.5992 18.0176 40.5418 18.2484C40.434 18.6879 40.7023 19.1309 41.1418 19.2398L43.4984 19.8187L44.0773 22.1754C44.1266 22.3758 44.252 22.5586 44.4418 22.6758C44.8262 22.9137 45.3301 22.7941 45.568 22.4098L46.8453 20.3496L49.2687 20.5277C49.475 20.5418 49.6859 20.4785 49.8559 20.3355C50.2016 20.0437 50.2449 19.5258 49.952 19.1812L48.3863 17.3285L49.3039 15.0797H49.3051ZM6.29141 14.0121C6.10039 13.9348 5.88125 13.9289 5.67617 14.0121C5.25664 14.182 5.05391 14.6602 5.22383 15.0797L6.14141 17.3285L4.5957 19.1566C4.44922 19.3172 4.36719 19.534 4.38359 19.7672C4.41523 20.2184 4.80781 20.5594 5.25898 20.5277L7.68242 20.3496L8.93867 22.3758C9.04531 22.5691 9.2293 22.718 9.46016 22.7754C9.89961 22.8832 10.3426 22.6148 10.4516 22.1754L11.0305 19.8187L13.3871 19.2398C13.5875 19.1895 13.7703 19.0641 13.8875 18.8742C14.1254 18.4898 14.0059 17.9859 13.6215 17.748L11.5613 16.4707L11.7395 14.0473C11.7535 13.841 11.6914 13.6301 11.5473 13.4602C11.2555 13.1145 10.7375 13.0711 10.393 13.3641L8.54023 14.9297L6.29141 14.0121ZM28.018 5.64023L28.9578 7.875L31.3766 8.07773C31.8277 8.11523 32.1641 8.51133 32.1266 8.9625C32.1066 9.20625 31.9813 9.41602 31.7996 9.55195L30.0078 11.0988L30.5621 13.4637C30.6652 13.9043 30.391 14.3461 29.9492 14.448C29.709 14.5043 29.4699 14.448 29.2836 14.3145L27.2633 13.091L25.1867 14.3484C24.8 14.5816 24.2984 14.4586 24.0641 14.073C23.9492 13.8832 23.9199 13.6652 23.9668 13.4637H23.9645L24.5188 11.0988L22.6824 9.51328C22.3402 9.21797 22.3027 8.7 22.5992 8.35898C22.7457 8.19023 22.9449 8.09531 23.1512 8.07891V8.07656L25.5699 7.87383L26.5098 5.63906C26.6855 5.22305 27.1648 5.02734 27.5809 5.20313C27.7859 5.28984 27.9371 5.44922 28.0168 5.63906L28.018 5.64023ZM18.9605 29.1457C19.9613 27.9434 21.2152 26.9637 22.6391 26.2875C24.0383 25.623 25.6063 25.2516 27.2645 25.2516C30.2469 25.2516 32.9469 26.4609 34.9016 28.4145C36.8563 30.3691 38.0645 33.0691 38.0645 36.0516C38.0645 39.034 36.8551 41.734 34.9016 43.6887C32.9469 45.6434 30.2469 46.8516 27.2645 46.8516C26.7406 46.8516 26.2332 46.8164 25.7457 46.7473C25.4398 46.7039 25.1422 46.65 24.8504 46.5844C24.7297 44.1762 23.6949 41.9988 22.0895 40.3934C20.6785 38.9824 18.8258 38.0133 16.7633 37.7168C17.0352 37.5141 17.2906 37.2914 17.5297 37.0523C18.8047 35.7773 19.5934 34.016 19.5934 32.0695C19.5934 31.0266 19.366 30.0363 18.9594 29.1445L18.9605 29.1457ZM22.6836 36.7184L24.8316 38.8664C25.2324 39.2672 25.7598 39.4676 26.2859 39.4676C26.8121 39.4676 27.3395 39.2672 27.7402 38.8664L33.9664 32.6402C34.2875 32.3191 34.2875 31.8 33.9664 31.4789C33.6453 31.1578 33.1262 31.1578 32.8051 31.4789L26.5789 37.7051C26.4992 37.7848 26.3926 37.8246 26.2848 37.8246C26.177 37.8246 26.0715 37.7848 25.9906 37.7051L23.8426 35.557C23.5215 35.2359 23.0023 35.2359 22.6812 35.557C22.3602 35.8781 22.3602 36.3973 22.6812 36.7184H22.6836ZM14.5273 39.2637L15.6289 48.4605C15.6699 48.8133 15.4824 49.1391 15.1824 49.2902L12.9582 50.5746C12.6922 50.7293 12.3746 50.7164 12.1273 50.5687L9.87031 49.2656C9.57852 49.0969 9.42969 48.7758 9.46719 48.4605C9.50469 48.1453 10.5687 39.2637 10.5687 39.2637H9.67461C7.53125 39.2637 5.58125 40.1414 4.16797 41.5547C2.75469 42.968 1.87695 44.918 1.87695 47.0613V54.8602H5.00234V47.4844C5.00234 47.0309 5.37031 46.6629 5.82383 46.6629C6.27734 46.6629 6.64531 47.0309 6.64531 47.4844V54.8602H18.4531V47.4844C18.4531 47.0309 18.8211 46.6629 19.2746 46.6629C19.7281 46.6629 20.0961 47.0309 20.0961 47.4844V54.8602H23.2215V47.0613C23.2215 44.918 22.3438 42.968 20.9305 41.5547C19.516 40.1402 17.5672 39.2637 15.4238 39.2637H14.5297H14.5273ZM12.2211 39.2637L11.1605 48.1184L12.548 48.9187L13.9355 48.1184L12.875 39.2637H12.2211Z" fill="url(#paint0_linear_165_240)"/>
<defs>
<linearGradient id="paint0_linear_165_240" x1="40.9871" y1="9.46172" x2="11.5508" y2="60.4465" gradientUnits="userSpaceOnUse">
<stop stop-color="#F4DCB7"/>
<stop offset="1" stop-color="#AF7927"/>
</linearGradient>
</defs>
</svg>
