<svg width="60" height="60" viewBox="0 0 60 60" fill="none" xmlns="http://www.w3.org/2000/svg">
<path d="M53 35V25H48.31C47.8918 23.4559 47.2803 21.9708 46.49 20.58L49.8 17.27L42.73 10.2L39.42 13.51C38.0292 12.7197 36.5441 12.1082 35 11.69V7H25V11.69C23.4559 12.1082 21.9708 12.7197 20.58 13.51L17.27 10.2L10.2 17.27L13.51 20.58C12.7197 21.9708 12.1082 23.4559 11.69 25H7V35H11.69C11.929 35.8924 12.2366 36.765 12.61 37.61L18.16 32C17.7187 29.3667 18.1682 26.6615 19.4373 24.3124C20.7065 21.9633 22.7228 20.1046 25.1673 19.0304C27.6117 17.9563 30.3445 17.728 32.9332 18.3818C35.522 19.0356 37.8187 20.534 39.46 22.64C46.12 31.19 38.82 43.72 28.02 41.86L22.39 47.42C23.235 47.7934 24.1076 48.101 25 48.34V53H35V48.31C36.5441 47.8918 38.0292 47.2803 39.42 46.49L42.73 49.8L49.8 42.73L46.49 39.42C47.2803 38.0292 47.8918 36.5441 48.31 35H53Z" fill="url(#paint0_linear_165_260)"/>
<path d="M36.9007 27.3402L32.4407 31.8102L29.6107 30.3902L28.1907 27.5602L32.6607 23.1002C31.4178 22.6618 30.0765 22.5833 28.7909 22.8735C27.5054 23.1638 26.3279 23.811 25.3939 24.7408C24.46 25.6706 23.8074 26.8452 23.5114 28.1294C23.2154 29.4136 23.288 30.7553 23.7207 32.0002L9.00069 47.0002C8.54669 47.5446 8.3127 48.2391 8.34469 48.9472C8.37669 49.6554 8.67237 50.326 9.17362 50.8272C9.67487 51.3285 10.3455 51.6242 11.0536 51.6562C11.7618 51.6882 12.4563 51.4542 13.0007 51.0002L28.0007 36.2802C29.2455 36.7129 30.5872 36.7854 31.8714 36.4894C33.1556 36.1934 34.3302 35.5409 35.26 34.6069C36.1898 33.6729 36.8371 32.4955 37.1273 31.2099C37.4176 29.9244 37.339 28.583 36.9007 27.3402Z" fill="url(#paint1_linear_165_260)"/>
<defs>
<linearGradient id="paint0_linear_165_260" x1="38.9845" y1="10.9996" x2="10.1906" y2="55.0849" gradientUnits="userSpaceOnUse">
<stop stop-color="#F4DCB7"/>
<stop offset="1" stop-color="#AF7927"/>
</linearGradient>
<linearGradient id="paint1_linear_165_260" x1="28.4763" y1="25.2194" x2="10.3503" y2="52.9715" gradientUnits="userSpaceOnUse">
<stop stop-color="#F4DCB7"/>
<stop offset="1" stop-color="#AF7927"/>
</linearGradient>
</defs>
</svg>
