<svg width="24" height="24" viewBox="0 0 24 24" fill="none" xmlns="http://www.w3.org/2000/svg">
<g id="tiktok">
<path id="tiktok_2" d="M21.7372 6.63352C21.5772 6.49001 21.36 6.408 21.1314 6.408C20.2514 6.408 19.2228 6.16197 18.6171 5.80318C17.68 5.25987 17.0286 4.39877 16.8343 3.42491C16.7885 3.20963 16.7657 2.98411 16.7771 2.76884C16.7771 2.56381 16.6857 2.36904 16.5257 2.22553C16.3657 2.08201 16.1486 2 15.92 2H12.3885C11.92 2 11.5314 2.34854 11.5314 2.76884V15.3675C11.5314 15.5623 11.4971 15.757 11.4286 15.9416C11.2571 16.4336 10.88 16.8334 10.3772 17.0692C9.87431 17.305 9.29139 17.3562 8.74282 17.2025C8.19424 17.0487 7.74856 16.7104 7.4857 16.2593C7.22284 15.8083 7.16571 15.2855 7.34856 14.7934C7.51999 14.3014 7.89712 13.9016 8.39997 13.6658C8.90283 13.43 9.48568 13.3788 10.0343 13.5325C10.2971 13.6043 10.5829 13.5633 10.8 13.4198C11.0172 13.2763 11.1543 13.0405 11.1543 12.8047V9.56535C11.1543 9.18606 10.8343 8.85802 10.4114 8.80676C10.08 8.76576 9.73711 8.74526 9.39425 8.74526C7.41711 8.74526 5.56567 9.43208 4.17139 10.6827C2.7771 11.9334 2.01143 13.5941 2 15.3675C2 19.0272 5.31424 22 9.38281 22C13.4514 22 16.7771 19.0272 16.7771 15.3778V10.2624C18.0914 10.8057 19.6228 11.1133 21.12 11.1133C21.6 11.1133 22 10.775 22 10.3444V7.19734C22 6.99232 21.9085 6.79755 21.7485 6.65403L21.7372 6.63352ZM20.2743 9.52435C18.8571 9.39109 17.4286 8.95028 16.4114 8.2942C16.1486 8.13019 15.8057 8.09943 15.52 8.2327C15.2343 8.36596 15.0514 8.63249 15.0514 8.91952V15.3572C15.0514 18.1661 12.5029 20.4418 9.37144 20.4418C6.24001 20.4418 3.70285 18.1558 3.70285 15.347C3.70285 13.9836 4.29716 12.7125 5.37144 11.7489C6.44573 10.7852 7.86281 10.2624 9.38281 10.2624C9.38281 10.2624 9.4057 10.2624 9.41713 10.2624V11.8924C8.81142 11.8719 8.16002 12.0154 7.58859 12.2819C6.6743 12.7124 5.99998 13.43 5.69141 14.3116C5.38283 15.1932 5.47424 16.1261 5.95424 16.9462C6.43424 17.7663 7.23429 18.3711 8.21715 18.6479C9.2 18.9247 10.24 18.8426 11.1543 18.4121C12.0686 17.9815 12.7428 17.264 13.0514 16.3824C13.1657 16.0441 13.2343 15.6955 13.2343 15.347V3.51718H15.12C15.12 3.57869 15.1429 3.62994 15.1543 3.69145C15.44 5.0856 16.3771 6.31574 17.6914 7.08458C18.3657 7.48437 19.3257 7.7714 20.2857 7.88416V9.50385L20.2743 9.52435Z" fill="#B8875C"/>
</g>
</svg>
